<svg width="332" height="218" viewBox="0 0 332 218" fill="none" xmlns="http://www.w3.org/2000/svg">
<g clip-path="url(#clip0_160_68479)">
<path d="M326.244 51.518L321.052 76.6592L317.71 73.404L312.024 77.4567L307.678 72.0639L297.934 79.1494L289.606 65.2225L280.318 70.6641L276.634 65.5806L264.84 72.2266L261.291 64.6311L269.56 24.5864L313.885 33.739L326.244 51.518Z" fill="#EBEBEB"/>
<path d="M313.885 33.7388L326.244 51.5177L310.868 48.3439L313.885 33.7388Z" fill="#DBDBDB"/>
<path d="M319.945 81.6883L312.333 118.575L252.627 106.254L260.184 69.6548L263.733 77.2557L275.533 70.6096L279.211 75.6878L288.505 70.2461L296.827 84.1731L306.577 77.0875L310.917 82.4804L316.608 78.4276L319.945 81.6883Z" fill="#EBEBEB"/>
<path d="M234.49 77.3645L173.644 81.1298L168.81 3.02063L213.993 0.226562L230.578 14.1372L234.49 77.3645Z" fill="#EBEBEB"/>
<path d="M213.993 0.226562L230.578 14.1372L214.91 15.1084L213.993 0.226562Z" fill="#DBDBDB"/>
<path d="M197.125 52.7765L196.892 51.0132C196.279 47.3619 197.277 43.2766 200.451 39.0068C203.31 35.2308 204.862 32.4801 204.694 29.4148C204.499 25.9425 202.193 23.7507 197.901 23.9243C195.449 24.0599 192.774 25.0311 191.147 26.42L189.275 22.2262C191.429 20.4683 195.248 19.1608 198.856 18.9601C206.68 18.5206 210.488 23.1539 210.781 28.3243C211.042 32.9521 208.644 36.4298 205.595 40.4934C202.8 44.1989 201.878 47.2534 202.274 50.7148L202.442 52.4781L197.136 52.7765H197.125ZM196.16 62.3848C196.019 59.8674 197.619 58.0011 200.001 57.8709C202.383 57.7352 204.113 59.4171 204.254 61.9345C204.39 64.3162 202.925 66.2422 200.408 66.3833C198.026 66.5189 196.29 64.772 196.154 62.3902L196.16 62.3848Z" fill="#DBDBDB"/>
<path d="M44.9545 39.4956L38.8292 36.7178L37.9829 38.595C37.7333 39.1483 37.1907 39.4956 36.5885 39.5227C36.2522 39.539 35.9212 39.5715 35.5903 39.6203C34.9935 39.7126 34.3967 39.4684 34.044 38.9802L32.845 37.3091L27.3762 41.2263L28.5752 42.8973C28.9279 43.3856 28.9604 44.0312 28.6838 44.5683C28.5264 44.8667 28.3908 45.1705 28.2714 45.4852C28.0544 46.0494 27.5444 46.4509 26.9422 46.5052L24.8914 46.7059L25.5533 53.3954L27.6095 53.1892C28.2117 53.1295 28.7814 53.4279 29.1124 53.9379C29.1992 54.079 29.2914 54.2146 29.3891 54.3502C29.4867 54.4859 29.5844 54.6161 29.6875 54.7463C30.0618 55.2183 30.1649 55.8531 29.9153 56.401L29.0581 58.2891L35.1834 61.0669L36.0351 59.1897C36.2847 58.6363 36.8272 58.2891 37.4295 58.2619C37.7604 58.2457 38.0968 58.2131 38.4277 58.1643C39.0245 58.0721 39.6213 58.3162 39.974 58.8045L41.173 60.4755L46.6418 56.5584L45.4427 54.8874C45.0901 54.3991 45.0575 53.7534 45.3342 53.2163C45.4861 52.9179 45.6272 52.6141 45.7466 52.3049C45.9636 51.7406 46.4736 51.3392 47.0758 51.2795L49.1266 51.0787L48.4647 44.3893L46.4085 44.59C45.8062 44.6497 45.242 44.3513 44.9111 43.8413C44.8242 43.7002 44.7266 43.5646 44.6289 43.429C44.5313 43.2933 44.4336 43.1631 44.3305 43.0329C43.9508 42.5609 43.8531 41.9207 44.1027 41.3727L44.9545 39.4956ZM41.4822 45.6859C43.2509 48.1599 42.6867 51.5941 40.2127 53.3682C37.7387 55.1369 34.299 54.5727 32.5249 52.1041C30.7562 49.6302 31.3205 46.1851 33.7945 44.4164C36.2684 42.6477 39.7081 43.2174 41.4768 45.6913L41.4822 45.6859Z" fill="#EBEBEB"/>
<path d="M321.594 128.254L317.514 130.609L318.236 131.857C318.448 132.226 318.426 132.676 318.198 133.029C318.068 133.224 317.954 133.43 317.845 133.636C317.655 134.011 317.27 134.255 316.853 134.255H315.409V138.964H316.853C317.276 138.964 317.655 139.208 317.845 139.583C317.954 139.794 318.068 139.995 318.198 140.19C318.431 140.543 318.448 140.999 318.236 141.362L317.514 142.61L321.594 144.965L322.316 143.711C322.528 143.342 322.929 143.142 323.358 143.163C323.472 143.169 323.591 143.174 323.705 143.174C323.819 143.174 323.938 143.174 324.052 143.163C324.475 143.142 324.877 143.342 325.088 143.706L325.815 144.965L329.895 142.61L329.174 141.357C328.962 140.988 328.984 140.538 329.217 140.185C329.347 139.99 329.461 139.789 329.57 139.577C329.76 139.203 330.139 138.959 330.562 138.959H332.006V134.25H330.562C330.139 134.25 329.76 134.005 329.57 133.631C329.461 133.419 329.347 133.219 329.217 133.023C328.984 132.671 328.962 132.215 329.174 131.852L329.895 130.598L325.815 128.244L325.094 129.497C324.882 129.866 324.481 130.067 324.057 130.045C323.944 130.039 323.824 130.034 323.71 130.034C323.596 130.034 323.477 130.034 323.363 130.045C322.94 130.067 322.533 129.866 322.321 129.497L321.6 128.244L321.594 128.254ZM323.705 132.758C325.837 132.758 327.562 134.483 327.562 136.615C327.562 138.747 325.837 140.472 323.705 140.472C321.573 140.472 319.847 138.742 319.847 136.615C319.847 134.488 321.578 132.758 323.705 132.758Z" fill="#EBEBEB"/>
<path d="M57.3351 19.4488L53.5916 22.308L54.4705 23.4527C54.7309 23.7891 54.7689 24.2394 54.5845 24.6246C54.4814 24.8362 54.3946 25.0532 54.3132 25.2756C54.1721 25.6717 53.8249 25.9647 53.4072 26.0189L51.9749 26.2034L52.5825 30.8746L54.0148 30.6902C54.4325 30.6359 54.8449 30.8258 55.0836 31.1784C55.2192 31.3738 55.3603 31.5582 55.5122 31.7373C55.7889 32.0574 55.8648 32.5022 55.7021 32.8983L55.1487 34.2275L59.4998 36.0342L60.0532 34.6995C60.216 34.3089 60.5903 34.0539 61.0135 34.0213C61.1275 34.0105 61.2414 33.9996 61.3608 33.9834C61.4747 33.9671 61.5886 33.9508 61.7026 33.9291C62.1203 33.8532 62.5435 33.9996 62.7985 34.336L63.6828 35.4916L67.4263 32.6325L66.5474 31.4823C66.2924 31.1459 66.2544 30.6956 66.4389 30.3104C66.542 30.0988 66.6288 29.8818 66.7102 29.6648C66.8512 29.2687 67.1985 28.9757 67.6162 28.9215L69.0485 28.737L68.4409 24.0658L67.0086 24.2502C66.5908 24.3045 66.1785 24.1146 65.9398 23.7674C65.8096 23.5721 65.6631 23.3876 65.5112 23.2086C65.2345 22.8885 65.1585 22.4436 65.3213 22.0475L65.8747 20.7129L61.5235 18.9062L60.9701 20.2409C60.8074 20.6315 60.433 20.8811 60.0153 20.9191C59.9013 20.9299 59.782 20.9408 59.668 20.957C59.5541 20.9733 59.4402 20.9896 59.3262 21.0113C58.9085 21.0873 58.4799 20.9408 58.2249 20.6044L57.346 19.4596L57.3351 19.4488ZM60.0044 23.6426C62.1149 23.3659 64.0517 24.8579 64.3284 26.9684C64.6051 29.0788 63.1131 31.0211 61.0027 31.2924C58.8922 31.5691 56.9499 30.0771 56.6787 27.9612C56.402 25.8507 57.8939 23.9139 60.0098 23.6372L60.0044 23.6426Z" fill="#EBEBEB"/>
<path d="M29.4049 141.856C29.6165 136.604 29.5351 131.347 29.1879 126.106C28.4772 115.293 26.6976 104.562 24.2508 94.0151C22.8728 88.0743 21.18 82.2366 19.4168 76.4044C19.3625 76.2307 19.0804 76.2796 19.1292 76.464C24.5872 97.0262 29.0685 118.239 28.7593 139.615C28.6725 145.594 27.978 151.47 27.4138 157.416C27.3975 157.573 27.6579 157.638 27.6959 157.476C28.8244 152.387 29.1879 147.059 29.3995 141.867L29.4049 141.856Z" fill="#EBEBEB"/>
<path d="M19.1293 76.4585C19.1293 76.4585 10.8556 97.4547 12.7111 102.386C14.5611 107.323 18.3806 108.376 18.3806 108.376C18.3806 108.376 13.3187 115.603 16.8561 122.379C20.3934 129.155 28.2493 128.835 28.7702 136.517C28.7702 136.517 29.2096 104.388 19.1293 76.4585Z" fill="#EBEBEB"/>
<path d="M27.8751 123.252C27.886 123.22 27.8805 123.182 27.8642 123.144C26.7032 108.869 24.1696 94.6386 19.8401 80.907C19.8293 80.869 19.7587 80.8799 19.7696 80.9233C21.4081 87.0648 22.8675 93.2389 24.1153 99.4455C23.0411 98.3387 21.6359 97.704 20.1656 97.2428C20.1385 97.232 20.1222 97.2754 20.1494 97.2862C21.6793 97.9481 23.1442 98.7131 24.2238 100.01C24.468 101.225 24.7013 102.446 24.9291 103.661C23.0791 101.594 20.5183 100.569 17.9521 99.5974C17.9141 99.5812 17.8978 99.6408 17.9304 99.6517C20.5997 100.737 23.2635 102.142 25.0756 104.442C25.705 107.925 26.2583 111.425 26.7358 114.93C25.3849 113.519 23.7193 112.569 21.8041 112.103C21.7444 112.087 21.7119 112.173 21.7716 112.19C23.7355 112.754 25.4283 113.855 26.7737 115.396C26.7846 115.407 26.7954 115.412 26.8063 115.418C26.9745 116.649 27.1264 117.886 27.2729 119.123C26.2312 118.234 25.081 117.561 23.8169 117.04C23.7844 117.024 23.7627 117.078 23.8006 117.094C25.0865 117.642 26.2421 118.429 27.262 119.384C27.2783 119.395 27.2892 119.395 27.3054 119.4C27.4411 120.577 27.5821 121.749 27.7015 122.932C25.8026 120.648 23.4588 118.993 20.6865 117.924C20.6322 117.903 20.6051 117.984 20.6539 118.011C23.3503 119.183 25.7267 121.044 27.5659 123.333C27.6147 123.399 27.6798 123.404 27.7395 123.388C27.9185 125.194 28.0758 127.006 28.2115 128.818C28.2115 128.846 28.2549 128.846 28.2549 128.818C28.1518 126.963 28.0216 125.108 27.8697 123.252H27.8751Z" fill="white"/>
<path d="M21.229 95.1542C19.7967 94.1668 17.9737 93.749 16.2593 93.6025C16.2159 93.6025 16.2159 93.6622 16.2593 93.6676C18.0389 93.9335 19.5363 94.5791 21.1747 95.2736C21.2452 95.3061 21.2941 95.1976 21.2344 95.1542H21.229Z" fill="white"/>
<path d="M22.2325 117.388C21.0986 116.704 19.802 116.319 18.4999 116.113C18.4565 116.107 18.4511 116.178 18.4999 116.183C19.8183 116.422 20.9901 116.894 22.1891 117.48C22.238 117.507 22.2814 117.42 22.2325 117.393V117.388Z" fill="white"/>
<path d="M51.1504 102.728C47.6999 105.153 44.3904 107.953 41.5746 111.1C38.5744 114.452 36.388 118.261 34.858 122.487C31.7276 131.146 30.0132 140.521 29.8558 149.723C29.769 154.882 30.2247 159.999 31.3315 165.039C31.3695 165.223 31.6462 165.169 31.6191 164.984C30.2681 156.114 30.317 147.064 31.771 138.216C33.1924 129.53 35.4223 120.079 40.9453 113.02C43.9509 109.179 47.6999 106.152 51.4054 103.027C51.6007 102.864 51.3512 102.593 51.1504 102.734V102.728Z" fill="#EBEBEB"/>
<path d="M31.0766 143.467C31.0766 143.467 33.9195 138.682 38.0537 134.548C42.1932 130.414 45.6763 127.473 46.2134 124.733C46.7505 121.999 42.0684 119.981 42.0684 119.981C42.0684 119.981 47.7922 121.006 49.3601 118.608C50.9281 116.205 51.6822 102.289 51.6822 102.289C51.6822 102.289 41.2655 109.727 36.4098 120.154C31.5541 130.582 31.0712 143.473 31.0712 143.473L31.0766 143.467Z" fill="#EBEBEB"/>
<path d="M48.085 105.853C43.7013 110.161 39.2905 114.745 36.708 120.404C35.8237 122.34 35.0695 124.353 34.4076 126.404C34.4076 126.404 34.4076 126.41 34.4076 126.415C34.272 126.827 34.1418 127.234 34.0116 127.652C34.0007 127.674 33.9899 127.695 33.9899 127.717C32.7149 131.943 31.8143 136.311 31.0331 140.575C31.0331 140.602 31.071 140.619 31.0765 140.591C31.5268 138.421 32.0205 136.229 32.5739 134.043C32.5956 134.043 32.6118 134.043 32.6335 134.032C33.5179 133.658 34.4131 133.425 35.3679 133.338C35.4276 133.332 35.4276 133.224 35.3625 133.229C34.4402 133.273 33.5341 133.435 32.6607 133.723C33.1652 131.754 33.7132 129.784 34.3317 127.847C36.3445 127.354 38.4441 127.088 40.5112 127.039C40.5329 127.039 40.5383 127.006 40.5112 127.006C38.4278 126.909 36.4693 127.088 34.4348 127.522C34.5433 127.191 34.6518 126.86 34.7657 126.529C36.1221 126.22 37.4892 125.959 38.8781 125.834C38.9053 125.834 38.8998 125.791 38.8781 125.791C37.5164 125.829 36.1763 125.97 34.8525 126.279C35.4168 124.603 36.0298 122.948 36.7134 121.337C37.2777 120.002 37.945 118.738 38.6828 117.517C39.795 117.268 40.8747 117.024 42.0194 116.921C42.052 116.921 42.0466 116.866 42.0194 116.866C40.9832 116.801 39.9035 116.877 38.8998 117.176C39.4478 116.291 40.0229 115.423 40.6414 114.582C42.9797 114.067 45.3452 113.584 47.7324 114.034C47.7758 114.04 47.7866 113.975 47.7486 113.964C45.4754 113.367 43.2184 113.709 40.9506 114.159C41.2002 113.828 41.4498 113.508 41.7048 113.182C43.1371 112.738 44.5639 112.526 46.0722 112.499C46.1047 112.499 46.1102 112.455 46.0722 112.45C44.6996 112.32 43.327 112.45 42.0032 112.814C43.9346 110.416 46.0668 108.159 48.1772 105.929C48.2749 105.826 48.1989 105.766 48.0959 105.869L48.085 105.853Z" fill="white"/>
<path d="M47.9658 115.337C47.2823 115.266 46.5824 115.185 45.8934 115.266C45.812 115.277 45.8174 115.413 45.8988 115.413C46.5824 115.435 47.2714 115.38 47.955 115.418C48.0092 115.418 48.0147 115.342 47.9604 115.337H47.9658Z" fill="white"/>
<path d="M40.4678 128.841C39.3719 128.83 38.2814 129.123 37.256 129.486C37.2288 129.497 37.2451 129.54 37.2723 129.53C38.3302 129.275 39.4044 129.177 40.4787 128.998C40.5655 128.982 40.56 128.841 40.4678 128.841Z" fill="white"/>
<path d="M38.2218 124.175C37.7769 124.153 37.2995 124.229 36.86 124.299C36.8166 124.305 36.8166 124.381 36.86 124.381C37.3049 124.386 37.7877 124.403 38.2272 124.316C38.3032 124.299 38.3032 124.18 38.2218 124.175Z" fill="white"/>
<path d="M0.536938 117.502C3.88982 118.668 7.21558 120.165 10.2212 122.059C13.4222 124.083 16.0752 126.654 18.2888 129.72C22.8244 136.002 26.378 143.196 28.6295 150.602C29.8936 154.758 30.702 159 30.9787 163.335C30.9896 163.493 30.7563 163.514 30.7346 163.357C29.7743 155.87 27.6421 148.556 24.4249 141.726C21.2673 135.026 17.2742 127.897 11.1761 123.459C7.85577 121.044 4.12311 119.46 0.401304 117.789C0.20599 117.702 0.34705 117.426 0.542363 117.491L0.536938 117.502Z" fill="#EBEBEB"/>
<path d="M26.1988 145.827C26.1988 145.827 22.7917 142.61 18.4894 140.223C14.1871 137.83 10.6823 136.257 9.61889 134.168C8.55009 132.079 11.8758 129.367 11.8758 129.367C11.8758 129.367 7.48129 131.521 5.65837 129.942C3.83544 128.358 0.00512695 117.268 0.00512695 117.268C0.00512695 117.268 10.156 120.881 16.4928 128.195C22.8297 135.508 26.2043 145.833 26.2043 145.833L26.1988 145.827Z" fill="#EBEBEB"/>
<path d="M25.6672 143.538C20.5891 134.011 13.8182 125.39 4.5354 119.699C4.5354 119.699 4.52455 119.699 4.5354 119.704C6.97682 121.261 9.22835 123.057 11.328 125.021C9.45079 124.967 7.53563 125.271 5.87004 126.171C5.83207 126.193 5.85919 126.242 5.89717 126.231C7.75265 125.602 9.5376 125.189 11.5124 125.281C11.5396 125.281 11.5558 125.271 11.5775 125.26C11.9085 125.574 12.234 125.889 12.5541 126.209C11.5775 126.253 10.5901 126.388 9.64068 126.594C9.61355 126.6 9.6244 126.638 9.64611 126.632C10.6769 126.432 11.6806 126.367 12.7277 126.377C14.4313 128.086 16.0155 129.915 17.5129 131.814C16.8347 131.716 16.124 131.77 15.473 131.96C15.4241 131.976 15.435 132.041 15.4892 132.036C16.2271 131.944 16.9324 131.955 17.6648 132.003C17.9415 132.356 18.2236 132.709 18.4949 133.067C16.4061 132.942 14.3608 133.143 12.3371 133.664C12.3045 133.669 12.3154 133.718 12.3479 133.712C14.4421 133.3 16.5472 133.17 18.6739 133.3C18.9343 133.642 19.1785 133.995 19.4335 134.342C18.1856 134.304 16.9812 134.461 15.7659 134.76C15.7171 134.77 15.7334 134.841 15.7822 134.836C17.03 134.553 18.2996 134.477 19.58 134.537C20.6705 136.04 21.7176 137.581 22.7213 139.138C22.1896 139.029 21.6308 139.089 21.1099 139.236C21.0828 139.241 21.0882 139.284 21.1208 139.279C21.7176 139.208 22.2764 139.284 22.8623 139.36C23.7684 140.765 24.6418 142.187 25.4773 143.619C25.5479 143.739 25.7432 143.652 25.6781 143.522L25.6672 143.538Z" fill="white"/>
<path d="M17.7731 135.638C16.7803 135.551 15.7712 135.709 14.8217 135.996C14.7946 136.007 14.8 136.045 14.8326 136.04C15.8091 135.861 16.7749 135.79 17.7623 135.741C17.8274 135.741 17.8382 135.644 17.7677 135.638H17.7731Z" fill="white"/>
<path d="M8.91903 124.023C8.46872 123.974 8.00214 124.028 7.55726 124.104C7.503 124.115 7.51928 124.191 7.57353 124.185C8.01842 124.136 8.4633 124.153 8.90818 124.142C8.97871 124.142 8.99498 124.033 8.91903 124.028V124.023Z" fill="white"/>
<path d="M39.2902 177.337H16.3788L19.6449 153.406L20.4804 147.27H35.1886L36.0241 153.406L39.2902 177.337Z" fill="#DBDBDB"/>
<path d="M36.024 153.406H19.6448L20.4803 147.27H35.1885L36.024 153.406Z" fill="#C7C7C7"/>
<path d="M37.2883 145.144H18.3755V150.341H37.2883V145.144Z" fill="#DBDBDB"/>
<path d="M1.8118 177.338L43.0501 177.202L84.2884 177.159L166.765 177.066L249.241 177.153L290.48 177.202L331.718 177.338L290.48 177.468L249.241 177.517L166.765 177.609L84.2884 177.517L43.0501 177.468L1.8118 177.338Z" fill="#263238"/>
<path d="M167.85 217.773C253.768 217.773 323.417 210.141 323.417 200.727C323.417 191.312 253.768 183.68 167.85 183.68C81.9327 183.68 12.2829 191.312 12.2829 200.727C12.2829 210.141 81.9327 217.773 167.85 217.773Z" fill="#EBEBEB"/>
<path d="M131.636 197.9C130.372 198.328 94.1248 198.453 92.7359 197.585C92.2097 197.26 91.8842 191.981 91.6672 185.59C91.6183 184.212 91.5803 182.785 91.5478 181.336L88.6072 162L112.837 161.843L115.126 181.179L115.034 185.432C115.034 185.432 128.934 191.59 130.35 192.708C131.761 193.825 132.895 197.46 131.63 197.889L131.636 197.9Z" fill="#EB9481"/>
<path d="M131.636 197.9C130.372 198.329 94.125 198.453 92.7361 197.585C92.0959 197.184 91.7487 189.474 91.5533 181.342L115.132 181.19L115.04 185.443C115.04 185.443 128.94 191.601 130.356 192.719C131.766 193.836 132.9 197.472 131.636 197.9Z" fill="white"/>
<path d="M131.636 197.9C130.372 198.329 94.1249 198.453 92.736 197.585C92.2098 197.26 91.8843 191.981 91.6672 185.59L115.04 185.438C115.04 185.438 128.94 191.596 130.356 192.713C131.766 193.831 132.9 197.466 131.636 197.895V197.9Z" fill="#A6A6A6"/>
<path d="M131.11 196.452C125.034 196.321 100.511 196.381 94.4941 196.717C94.4453 196.717 94.4453 196.755 94.4941 196.755C100.516 197.016 125.034 196.755 131.11 196.549C131.24 196.549 131.24 196.452 131.11 196.452Z" fill="#263238"/>
<path d="M128.023 191.422C126.58 191.368 125.175 192.057 124.393 192.919C123.639 193.744 122.999 194.91 123.048 196.169C123.048 196.207 123.118 196.207 123.124 196.169C123.46 193.787 125.62 191.693 128.028 191.498C128.077 191.498 128.077 191.422 128.028 191.422H128.023Z" fill="#263238"/>
<path d="M117.4 186.04C114.969 186.013 112.154 186.881 110.645 188.878C110.586 188.954 110.7 189.035 110.77 188.997C112.967 187.858 115.051 187.006 117.443 186.339C117.612 186.29 117.574 186.04 117.4 186.04Z" fill="#263238"/>
<path d="M119.283 186.767C116.852 186.74 114.036 187.608 112.528 189.604C112.468 189.68 112.582 189.762 112.653 189.724C114.845 188.584 116.934 187.732 119.326 187.065C119.494 187.016 119.456 186.767 119.283 186.767Z" fill="#263238"/>
<path d="M121.16 187.494C118.729 187.467 115.914 188.335 114.405 190.332C114.346 190.408 114.46 190.489 114.53 190.451C116.722 189.312 118.811 188.46 121.203 187.793C121.371 187.744 121.333 187.494 121.16 187.494Z" fill="#263238"/>
<path d="M123.042 188.216C120.612 188.189 117.796 189.057 116.288 191.053C116.228 191.129 116.342 191.211 116.413 191.173C118.604 190.033 120.693 189.182 123.086 188.514C123.254 188.466 123.216 188.216 123.042 188.216Z" fill="#263238"/>
<path d="M96.0241 190.944C93.2951 190.961 93.3168 195.203 96.0512 195.187C98.7802 195.171 98.7585 190.928 96.0241 190.944Z" fill="#263238"/>
<path d="M120.004 179.541C118.767 178.526 117.221 179.53 116.467 180.588C115.246 182.307 114.405 184.716 114.28 186.816C114.28 186.87 114.318 186.886 114.356 186.886C114.411 187.06 114.617 187.207 114.796 187.082C116.521 185.877 118.518 184.803 119.825 183.105C120.59 182.112 121.176 180.501 120.004 179.541ZM117.036 184.722C116.201 185.335 115.344 185.905 114.53 186.545C114.959 185.329 115.333 184.103 115.886 182.937C116.152 182.378 116.429 181.808 116.771 181.293C117.297 180.49 119.679 178.445 119.928 181.092C120.069 182.552 118.035 183.989 117.036 184.722Z" fill="#263238"/>
<path d="M108.242 187.744C110.363 188.064 112.544 187.451 114.622 187.12C114.839 187.088 114.888 186.838 114.801 186.675C114.834 186.648 114.844 186.61 114.806 186.572C113.26 185.151 110.987 183.995 108.915 183.599C107.634 183.355 105.822 183.707 105.638 185.297C105.464 186.8 107.005 187.554 108.242 187.739V187.744ZM106.766 186.366C105.111 184.288 108.242 184.109 109.18 184.321C109.783 184.462 110.379 184.673 110.954 184.896C112.164 185.357 113.282 185.981 114.438 186.556C113.407 186.653 112.392 186.843 111.367 186.979C110.141 187.142 107.678 187.516 106.766 186.366Z" fill="#263238"/>
<path d="M53.0056 72.6387C53.0056 72.6387 81.1471 120.512 81.9012 123.871C83.0568 129.035 89.1983 180.039 89.1983 180.039L118.479 179.513C118.479 179.513 113.433 134.542 108.654 119.726C105.209 109.054 80.3767 73.6587 80.3767 73.6587L53.0111 72.6333L53.0056 72.6387Z" fill="#37474F"/>
<path d="M115.815 175.026C111.61 174.994 96.7069 174.826 91.1133 175.352C91.0699 175.352 91.0699 175.428 91.1133 175.433C93.0393 175.71 111.616 175.281 115.815 175.146C115.896 175.146 115.891 175.032 115.815 175.032V175.026Z" fill="#263238"/>
<path d="M57.8073 77.0333C59.6519 79.925 61.5996 82.7571 63.4822 85.6271C65.3703 88.4971 67.2474 91.3672 69.1029 94.2589C72.8084 100.031 76.4217 105.864 79.9645 111.734C81.6247 114.485 83.2089 117.268 84.3536 120.268C85.4821 123.241 86.2525 126.339 86.8222 129.459C87.3973 132.6 87.7716 135.774 88.1297 138.948C88.5095 142.328 88.8838 145.702 89.2636 149.082C90.034 155.994 90.8044 162.906 91.5802 169.818C91.6725 170.664 91.7701 171.516 91.8515 172.363C91.8624 172.487 91.6399 172.509 91.6236 172.384C90.761 165.516 90.0449 158.631 89.2636 151.752C88.873 148.328 88.4824 144.905 88.0972 141.481C87.7337 138.297 87.3919 135.112 86.8981 131.944C86.4153 128.835 85.7805 125.737 84.8365 122.726C83.8491 119.579 82.4439 116.628 80.7892 113.769C77.3983 107.915 73.8067 102.164 70.2151 96.4236C66.591 90.6347 62.9397 84.8675 59.1474 79.1818C58.6808 78.4819 58.2088 77.782 57.7205 77.093C57.6825 77.0387 57.7747 76.9899 57.8127 77.0442L57.8073 77.0333Z" fill="#263238"/>
<path d="M62.2287 200.727C60.8941 200.645 26.4213 186.681 25.461 185.357C25.4284 185.313 25.4121 185.227 25.4067 185.102C25.4121 183.919 27.7993 179.769 29.7958 174.322C29.9206 173.974 30.8104 172.358 32.0474 170.177C35.4437 164.192 41.4495 153.944 41.4495 153.944L63.9811 162.896L53.1955 179.042L51.519 182.948C51.519 182.948 62.0931 193.875 62.9883 195.443C63.878 197.005 63.5634 200.803 62.2342 200.727H62.2287Z" fill="#EB9481"/>
<path d="M62.2286 200.727C60.894 200.645 26.4212 186.68 25.4609 185.356C25.4283 185.313 25.412 185.226 25.4066 185.101C25.412 183.919 27.7992 179.768 29.7957 174.321C29.9205 173.974 30.8103 172.357 32.0473 170.176L53.1954 179.036L51.5189 182.942C51.5189 182.942 62.093 193.869 62.9882 195.437C63.8779 196.999 63.5633 200.797 62.2341 200.721L62.2286 200.727Z" fill="white"/>
<path d="M62.2287 200.721C60.894 200.645 26.4266 186.675 25.4663 185.351C25.1028 184.852 26.6436 180.143 29.8012 174.321L51.519 182.948C51.519 182.948 62.093 193.869 62.9882 195.437C63.878 196.999 63.5633 200.797 62.2287 200.721Z" fill="#A6A6A6"/>
<path d="M62.2828 199.186C56.7001 196.788 33.9461 187.641 28.244 185.699C28.1952 185.682 28.1843 185.715 28.2278 185.737C33.7128 188.232 56.5374 197.195 62.2449 199.284C62.3642 199.327 62.4022 199.24 62.2828 199.192V199.186Z" fill="#263238"/>
<path d="M61.3062 193.364C59.9878 192.773 58.4307 192.887 57.3782 193.392C56.3691 193.874 55.3383 194.71 54.9097 195.898C54.8988 195.931 54.9585 195.958 54.9802 195.925C56.1846 193.847 58.9733 192.713 61.2791 193.435C61.3279 193.451 61.3496 193.386 61.3062 193.364Z" fill="#263238"/>
<path d="M53.4774 184.385C51.2313 183.452 48.2962 183.197 46.1531 184.483C46.0717 184.532 46.1423 184.651 46.2237 184.64C48.6868 184.407 50.9383 184.402 53.4069 184.678C53.5805 184.7 53.6401 184.451 53.4774 184.385Z" fill="#263238"/>
<path d="M54.9476 185.764C52.7015 184.825 49.7664 184.576 47.6234 185.861C47.542 185.91 47.6125 186.03 47.6939 186.019C50.157 185.786 52.4086 185.78 54.8771 186.057C55.0507 186.078 55.1104 185.829 54.9476 185.764Z" fill="#263238"/>
<path d="M56.4235 187.142C54.1774 186.209 51.2422 185.954 49.0992 187.239C49.0178 187.288 49.0884 187.408 49.1697 187.397C51.6329 187.163 53.8844 187.158 56.3529 187.435C56.5265 187.456 56.5862 187.207 56.4235 187.142Z" fill="#263238"/>
<path d="M57.8937 188.52C55.6476 187.581 52.7125 187.332 50.5695 188.617C50.4881 188.666 50.5586 188.786 50.64 188.775C53.1031 188.541 55.3546 188.536 57.8232 188.813C57.9968 188.834 58.0565 188.585 57.8937 188.52Z" fill="#263238"/>
<path d="M31.8248 180.913C29.2911 179.904 27.7178 183.843 30.2568 184.852C32.7905 185.861 34.3638 181.923 31.8248 180.913Z" fill="#263238"/>
<path d="M58.3332 179.34C57.5682 177.935 55.7615 178.282 54.6602 178.987C52.8807 180.121 51.2042 182.042 50.2982 183.941C50.2765 183.989 50.3036 184.022 50.3416 184.033C50.3253 184.212 50.4609 184.429 50.6725 184.38C52.7233 183.913 54.9803 183.664 56.8249 182.584C57.9046 181.949 59.0547 180.674 58.3332 179.345V179.34ZM53.6402 183.029C52.6365 183.284 51.6274 183.49 50.6291 183.778C51.4809 182.812 52.2893 181.819 53.2442 180.94C53.6999 180.523 54.1719 180.099 54.6765 179.747C55.4631 179.199 58.4362 178.2 57.6767 180.745C57.2589 182.15 54.8338 182.72 53.6348 183.024L53.6402 183.029Z" fill="#263238"/>
<path d="M44.3521 182.53C46.1968 183.62 48.4483 183.87 50.4991 184.347C50.7107 184.396 50.8517 184.185 50.8355 184.006C50.8734 183.995 50.9006 183.962 50.8789 183.913C49.9783 182.014 48.3072 180.088 46.5277 178.949C45.4318 178.244 43.6197 177.891 42.8547 179.291C42.1277 180.62 43.2725 181.895 44.3521 182.53ZM43.5058 180.696C42.7517 178.146 45.7248 179.155 46.5114 179.709C47.016 180.061 47.488 180.484 47.9437 180.908C48.8932 181.787 49.6961 182.785 50.5479 183.751C49.5551 183.458 48.546 183.251 47.5423 182.991C46.3487 182.682 43.9235 182.101 43.5112 180.696H43.5058Z" fill="#263238"/>
<path d="M54.937 178.135L29.7144 167.952C29.7144 167.952 60.9863 121.977 61.2141 118.554C61.4203 115.521 47.6833 89.1429 47.1407 81.4552C46.5548 73.1598 50.5533 66.7361 54.9424 62.7539L80.9625 73.8108C80.9625 73.8108 78.2173 78.2054 73.8932 80.6468C73.8932 80.6468 87.2342 111.137 86.4801 120.512C85.7206 129.936 54.937 178.135 54.937 178.135Z" fill="#37474F"/>
<path d="M56.0548 173.339C52.409 171.771 53.4778 172.167 49.8102 170.643C48.0144 169.894 36.2305 164.995 34.4347 164.593C34.3967 164.583 34.3696 164.648 34.4022 164.669C35.9701 165.63 47.8408 170.323 49.6529 171.039C53.3476 172.493 52.3005 172.037 56.0114 173.453C56.082 173.48 56.1254 173.377 56.0548 173.345V173.339Z" fill="#263238"/>
<path d="M78.1743 80.0934C75.4616 80.6739 72.8032 81.6342 70.2478 82.665C70.1502 82.703 70.1936 82.8549 70.3021 82.8223C72.9605 82.0465 75.6678 81.3195 78.2774 80.4026C78.4835 80.3321 78.3805 80.05 78.1743 80.0934Z" fill="#263238"/>
<path d="M75.0872 79.0243C74.8322 79.4692 74.6152 79.9412 74.4199 80.4186C74.268 80.7876 74.0781 81.1836 74.0781 81.5851C74.0781 81.6611 74.1812 81.6828 74.23 81.6339C74.5338 81.3355 74.6911 80.9015 74.881 80.5326C75.1035 80.104 75.3313 79.6754 75.5429 79.2413C75.684 78.9538 75.2391 78.7476 75.0818 79.0189L75.0872 79.0243Z" fill="#263238"/>
<path d="M75.402 76.5776C75.5593 76.1761 75.7221 75.78 75.8902 75.3786C76.0639 74.9662 76.2646 74.5648 76.4111 74.1416C76.4328 74.0765 76.5413 74.1199 76.5142 74.185C76.3568 74.5865 76.2537 75.0151 76.1235 75.4274C75.9933 75.8397 75.8631 76.252 75.7221 76.6644C75.4671 77.4294 75.1578 78.1889 74.8269 78.9268C75.25 78.9213 75.6895 78.9051 76.0747 78.7097C76.4925 78.4982 76.7475 78.0533 76.9536 77.6518C77.1815 77.2015 77.3931 76.7458 77.6318 76.3009C77.8922 75.8072 78.1798 75.3243 78.3534 74.7926C78.3751 74.7275 78.4781 74.7709 78.4564 74.836C78.0658 75.932 77.6806 77.0333 77.0676 78.0424C76.8288 78.4385 76.6335 78.8562 76.1941 79.0081C75.7221 79.1763 75.2012 79.1438 74.7075 79.1058C74.6478 79.1221 74.5665 79.0841 74.5882 79.0081C74.8214 78.1889 75.0819 77.3588 75.402 76.5667V76.5776Z" fill="#263238"/>
<path d="M74.2949 81.6452C75.2172 83.6037 76.031 85.5569 76.8991 87.51C77.7454 89.4197 78.5321 91.3512 79.3025 93.288C80.8542 97.2106 82.2431 101.204 83.4638 105.24C84.066 107.237 84.6248 109.249 85.1239 111.273C85.6285 113.302 86.1168 115.353 86.3284 117.442C86.54 119.536 86.388 121.603 85.8075 123.627C85.2162 125.678 84.4349 127.473 83.5126 129.394C82.9484 130.566 82.753 130.408 83.0243 129.817C83.8001 128.135 85.8347 123.041 85.6882 118.76C85.6176 116.693 85.1945 114.659 84.7279 112.651C84.2504 110.6 83.7133 108.566 83.1274 106.548C81.9718 102.565 80.5992 98.6646 79.1886 94.7691C78.3965 92.5881 77.5501 90.4288 76.7472 88.2478C75.9388 86.056 75.1033 84.0811 74.2081 81.6831C74.1864 81.618 74.2786 81.5855 74.3057 81.6452H74.2949Z" fill="#263238"/>
<path d="M55.1488 75.1669C55.5992 74.9987 56.2285 75.2754 56.6897 75.3514C57.281 75.449 57.8778 75.5087 58.4746 75.5304C59.066 75.5521 59.6573 75.5304 60.2487 75.4707C60.8346 75.4165 61.4369 75.3405 61.9468 75.0204C62.8095 74.4833 63.5256 73.5393 64.1116 72.72C64.7518 71.8249 65.4191 70.794 65.7989 69.7578C65.8206 69.6927 65.9128 69.7361 65.8965 69.8012C65.7066 70.4034 65.5656 71.0165 65.3214 71.6078C65.0936 72.1612 64.8006 72.6929 64.4913 73.2083C63.9108 74.1632 63.2435 75.1886 62.2452 75.7583C61.1981 76.355 59.8526 76.3171 58.6862 76.252C58.0134 76.214 57.3407 76.1218 56.6788 75.9861C56.2014 75.883 55.3984 75.8071 55.0946 75.3893C55.0403 75.3134 55.0675 75.1994 55.1597 75.1669H55.1488Z" fill="#263238"/>
<path d="M36.9142 163.145C41.0591 156.873 45.1282 150.547 49.1212 144.178C53.1252 137.792 57.0586 131.358 60.9377 124.891C61.8655 123.344 62.9343 121.798 63.531 120.084C64.1821 118.223 63.8132 116.416 63.2218 114.593C62.1421 111.251 60.8021 108.001 59.3481 104.806C57.8941 101.599 56.3261 98.4473 54.7853 95.2844C53.2554 92.1485 51.6332 88.9963 50.4722 85.6977C49.3654 82.5456 48.9422 79.2795 49.794 76.0134C50.6349 72.769 52.4578 69.861 54.3622 67.1429C54.8667 66.4268 55.3767 65.7161 55.8813 64.9999C55.9192 64.9456 56.0006 65.0108 55.9626 65.065C53.863 67.8971 51.8177 70.8973 50.5861 74.223C49.9785 75.8669 49.5824 77.5976 49.5444 79.35C49.5064 81.1295 49.8374 82.8982 50.3637 84.5964C51.3836 87.895 52.995 91.02 54.4978 94.1179C56.0332 97.2863 57.6065 100.433 59.0877 103.629C60.5742 106.84 61.9685 110.106 63.1133 113.459C63.6233 114.951 64.1929 116.514 64.155 118.114C64.117 119.867 63.2815 121.446 62.4134 122.921C58.6428 129.356 54.7257 135.703 50.7651 142.019C46.7883 148.355 42.7302 154.649 38.6069 160.893C38.086 161.68 37.5652 162.467 37.0444 163.253C36.9793 163.351 36.8382 163.237 36.9033 163.14L36.9142 163.145Z" fill="#263238"/>
<path d="M82.4057 44.5683C84.7548 49.7224 96.6147 56.8242 102.17 57.5892C106.169 58.1371 118.305 58.327 122.467 57.6923C127.344 56.949 123.617 43.787 120.736 44.1234C112.815 45.0511 106.087 46.082 103.977 46.082C101.394 46.082 87.4241 41.5952 85.7368 40.9658C81.619 39.4196 81.071 41.6494 82.4057 44.5683Z" fill="#EB9481"/>
<path d="M82.4816 45.9351C85.4547 50.3351 95.3397 57.5291 95.3397 57.5291L96.7124 54.4909L101.253 44.4486C101.253 44.4486 92.1767 41.584 86.2034 40.309C85.395 40.1354 84.6843 40.0323 84.0658 40.0052C80.2518 39.799 79.9208 42.159 82.487 45.9405L82.4816 45.9351Z" fill="#28BFB2"/>
<path d="M82.4817 45.9352C85.4548 50.3351 95.3398 57.5292 95.3398 57.5292L96.7124 54.491C93.0286 50.2104 87.3374 43.727 84.0659 39.9998C80.2519 39.7936 79.9209 42.1537 82.4871 45.9352H82.4817Z" fill="#263238"/>
<path d="M93.5549 55.4947C94.309 53.6501 97.6619 46.201 98.4974 44.6385C98.5571 44.53 98.6384 44.5409 98.5896 44.6602C96.4629 50.2429 94.4555 53.7477 93.6254 55.5218C93.6037 55.5652 93.5332 55.5435 93.5494 55.4947H93.5549Z" fill="#263238"/>
<path d="M119.287 44.2697C124.11 43.635 130.073 42.5553 135.118 44.6983C136.111 45.1161 136.469 45.8594 136.469 45.8594C138.748 46.7817 138.998 48.1326 138.998 48.1326C140.859 49.6408 140.924 51.0623 140.924 51.0623C140.924 51.0623 143.587 52.1745 143.186 53.8943C142.741 55.8258 139.084 53.8943 136.421 54.0517C130.322 54.426 121.756 56.6667 120.009 56.9542L119.282 44.2751L119.287 44.2697Z" fill="#EB9481"/>
<path d="M129.753 49.9551C131.549 49.8792 133.312 49.7598 135.113 49.928C137.088 50.1125 138.954 50.6224 140.864 51.0945C140.924 51.1107 140.951 51.0293 140.891 51.0022C137.56 49.6025 133.29 49.2336 129.747 49.8737C129.661 49.89 129.661 49.9606 129.747 49.9551H129.753Z" fill="#263238"/>
<path d="M128.993 46.3038C130.746 46.3255 133.827 46.3906 138.981 48.1864C138.998 48.1918 139.014 48.1647 138.998 48.1593C135.808 46.548 132.536 45.9729 128.999 46.2224C128.89 46.2279 128.879 46.3038 128.999 46.3038H128.993Z" fill="#263238"/>
<path d="M128.619 44.3404C131.598 44.4923 133.458 44.9697 136.453 45.8703C136.469 45.8703 136.486 45.8486 136.464 45.8378C133.165 44.4543 131.815 44.3295 128.608 44.2373C128.5 44.2373 128.5 44.335 128.619 44.3404Z" fill="#263238"/>
<path d="M129.102 54.9683C128.326 55.3318 128.51 55.7387 129.997 56.0859C131.494 56.4385 137.636 56.5308 137.419 58.6738C137.207 60.8277 128.516 60.551 126.091 59.7914C123.665 59.0373 120.009 56.9485 120.009 56.9485C121.712 56.661 125.771 55.5705 129.102 54.9683Z" fill="#EB9481"/>
<path d="M88.8563 52.7879C88.8183 53.7156 88.7261 54.6596 88.5958 55.5928C88.6067 55.5602 88.623 55.5277 88.6338 55.4951C88.8129 55.0069 88.9919 54.5077 89.2089 54.0357C89.2198 54.0086 89.2632 54.0194 89.2577 54.0466C89.1601 54.5565 88.981 55.072 88.7857 55.5548C88.6935 55.7881 88.5958 56.016 88.4982 56.2438C88.4331 56.6616 88.3571 57.0739 88.2703 57.4808C88.1076 58.2566 87.3751 61.5553 87.2124 62.1141C87.1798 62.2335 87.0388 62.2063 87.0442 62.0761C87.0822 61.4685 87.7007 58.0288 87.8254 57.253C88.0642 55.761 88.3951 54.2364 88.7912 52.777C88.802 52.7445 88.8508 52.7607 88.8508 52.7933L88.8563 52.7879Z" fill="#263238"/>
<path d="M83.2032 77.4513C81.7546 78.2 79.8883 79.3556 71.4789 77.6954C70.9527 77.5869 70.4264 77.4621 69.8947 77.3048C62.0116 74.9339 52.5498 65.6619 52.0181 65.0109C52.0181 65.0109 64.5399 44.7037 80.561 38.318C82.5413 37.5314 85.8182 39.0505 87.6357 40.9439C88.2813 41.6221 89.6919 46.6026 89.1494 50.6391C88.6068 54.6701 84.6572 76.7134 83.1977 77.4513H83.2032Z" fill="#28BFB2"/>
<path d="M82.0857 50.4551C82.1291 50.8891 82.0965 51.3177 82.0423 51.7409C81.9771 52.1641 81.8958 52.5818 81.733 52.9887C81.6842 52.5547 81.7222 52.1261 81.7764 51.7029C81.8415 51.2797 81.9229 50.862 82.0857 50.4551Z" fill="white"/>
<path d="M76.6224 64.2842C76.6658 64.7182 76.6332 65.1468 76.579 65.57C76.5139 65.9932 76.4325 66.4109 76.2697 66.8178C76.2209 66.3838 76.2589 65.9552 76.3131 65.532C76.3783 65.1088 76.4596 64.6911 76.6224 64.2842Z" fill="white"/>
<path d="M67.3394 53.835C67.3828 54.269 67.3502 54.6976 67.296 55.1208C67.2309 55.544 67.1495 55.9617 66.9867 56.3686C66.9379 55.9346 66.9759 55.506 67.0301 55.0828C67.0952 54.6596 67.1766 54.2419 67.3394 53.835Z" fill="white"/>
<path d="M85.6609 63.584C85.7043 64.018 85.6717 64.4466 85.6175 64.8698C85.5524 65.293 85.471 65.7107 85.3082 66.1176C85.2594 65.6836 85.2974 65.255 85.3516 64.8318C85.4167 64.4086 85.4981 63.9909 85.6609 63.584Z" fill="white"/>
<path d="M73.7414 52.0392C74.1755 51.9958 74.6041 52.0283 75.0272 52.0826C75.4504 52.1477 75.8682 52.229 76.2751 52.3918C75.841 52.4406 75.4124 52.4027 74.9893 52.3484C74.5661 52.2833 74.1483 52.2019 73.7414 52.0392Z" fill="white"/>
<path d="M63.2054 62.0323C63.6394 61.9889 64.068 62.0215 64.4912 62.0757C64.9144 62.1408 65.3321 62.2222 65.739 62.385C65.305 62.4338 64.8764 62.3958 64.4532 62.3416C64.03 62.2765 63.6123 62.1951 63.2054 62.0323Z" fill="white"/>
<path d="M75.5969 72.8453C76.0309 72.8019 76.4595 72.8345 76.8827 72.8887C77.3059 72.9538 77.7236 73.0352 78.1305 73.198C77.6965 73.2468 77.2679 73.2088 76.8447 73.1546C76.4215 73.0894 76.0038 73.0081 75.5969 72.8453Z" fill="white"/>
<path d="M59.9554 68.9171C60.3895 68.8737 60.8181 68.9062 61.2413 68.9605C61.6644 69.0256 62.0822 69.107 62.4891 69.2697C62.0551 69.3186 61.6265 69.2806 61.2033 69.2263C60.7801 69.1612 60.3623 69.0798 59.9554 68.9171Z" fill="white"/>
<path d="M82.0042 40.7379C82.4383 40.6945 82.8669 40.727 83.2901 40.7813C83.7132 40.8464 84.131 40.9278 84.5379 41.0905C84.1039 41.1394 83.6753 41.1014 83.2521 41.0471C82.8289 40.982 82.4111 40.9006 82.0042 40.7379Z" fill="white"/>
<path d="M78.9388 44.1992C78.6621 44.541 78.3366 44.8177 78.0002 45.0781C77.6584 45.3331 77.3058 45.5664 76.8989 45.74C77.1756 45.3982 77.5011 45.1215 77.8375 44.8611C78.1793 44.6061 78.5374 44.3728 78.9388 44.1992Z" fill="white"/>
<path d="M62.2341 54.0303C61.9574 54.3721 61.6319 54.6488 61.2955 54.9092C60.9537 55.1642 60.6011 55.3975 60.1942 55.5711C60.4708 55.2293 60.7964 54.9526 61.1327 54.6922C61.4745 54.4426 61.8326 54.2039 62.2341 54.0303Z" fill="white"/>
<path d="M83.0948 58.4736C82.8181 58.8154 82.4925 59.0921 82.1562 59.3525C81.8144 59.6075 81.4617 59.8408 81.0548 60.0144C81.3315 59.6726 81.657 59.3959 81.9934 59.1355C82.3352 58.886 82.6933 58.6472 83.0948 58.4736Z" fill="white"/>
<path d="M69.5856 66.9805C69.3089 67.3223 68.9834 67.599 68.647 67.8594C68.3052 68.1144 67.9526 68.3477 67.5457 68.5213C67.8224 68.1795 68.1479 67.9028 68.4843 67.6424C68.8261 67.3874 69.1841 67.1541 69.5856 66.9805Z" fill="white"/>
<path d="M88.2706 46.8467C87.9939 47.1885 87.6684 47.4652 87.332 47.7256C86.9902 47.9806 86.6376 48.2139 86.2307 48.3875C86.5073 48.0457 86.8329 47.769 87.1692 47.5086C87.511 47.259 87.8691 47.0203 88.2706 46.8467Z" fill="white"/>
<path d="M87.9831 56.7104C87.6413 56.4337 87.3646 56.1081 87.1042 55.7718C86.8492 55.43 86.6159 55.0773 86.4423 54.6704C86.7841 54.9471 87.0608 55.2726 87.3212 55.609C87.5708 55.9508 87.8095 56.3089 87.9831 56.7104Z" fill="white"/>
<path d="M57.8776 63.4975C57.5358 63.2208 57.2591 62.8952 56.9987 62.5589C56.7437 62.2171 56.5104 61.8644 56.3368 61.4575C56.6786 61.7342 56.9553 62.0597 57.2157 62.3961C57.4652 62.7379 57.704 63.096 57.8776 63.4975Z" fill="white"/>
<path d="M84.3263 71.581C83.9845 71.3043 83.7078 70.9787 83.4474 70.6424C83.1924 70.3006 82.9591 69.9479 82.7855 69.541C83.1273 69.8177 83.404 70.1432 83.6644 70.4796C83.9139 70.8214 84.1527 71.1795 84.3263 71.581Z" fill="white"/>
<path d="M71.072 48.5507C70.7302 48.274 70.4535 47.9485 70.1931 47.6121C69.9381 47.2703 69.7048 46.9176 69.5312 46.5107C69.873 46.7874 70.1497 47.113 70.4101 47.4493C70.6597 47.7911 70.8984 48.1492 71.072 48.5507Z" fill="white"/>
<path d="M71.3054 76.182C70.9636 75.9053 70.6869 75.5798 70.4265 75.2434C70.1715 74.9016 69.9382 74.549 69.7646 74.1421C70.1064 74.4188 70.3831 74.7443 70.6435 75.0807C70.8931 75.4225 71.1318 75.7806 71.3054 76.182Z" fill="white"/>
<path d="M73.5569 59.8788C73.2151 59.6021 72.9384 59.2766 72.6779 58.9402C72.423 58.5984 72.1897 58.2458 72.0161 57.8389C72.3579 58.1156 72.6345 58.4411 72.895 58.7775C73.1445 59.1193 73.3832 59.4773 73.5569 59.8788Z" fill="white"/>
<path d="M84.6951 46.3478C82.6552 45.9681 80.7292 41.7417 80.485 38.8988C80.4688 38.7035 81.4399 37.1573 82.5304 35.2204C83.1869 34.0431 83.8922 32.7139 84.4456 31.4606C84.5595 31.2002 85.2268 32.0628 85.2268 32.0628L86.6808 33.175L91.4823 36.8589C91.4823 36.8589 89.54 39.1538 88.5851 41.3511C88.5092 41.5355 88.4495 41.7146 88.4115 41.8936C88.4061 41.9207 88.4007 41.9479 88.3844 41.9858C88.1131 43.0384 86.6537 46.7222 84.6843 46.3533L84.6951 46.3478Z" fill="#EB9481"/>
<path d="M88.4223 41.8933C88.4223 41.8933 88.4115 41.9475 88.3952 41.9855C88.1348 41.9096 87.8581 41.8065 87.5651 41.6708C82.3079 39.2077 84.6246 32.1602 84.6246 32.1602L86.6808 33.1801L91.4822 36.864C91.4822 36.864 89.54 39.1589 88.5851 41.3562C88.5091 41.5406 88.4495 41.7197 88.4115 41.8987L88.4223 41.8933Z" fill="#263238"/>
<path d="M97.0053 21.8467C97.0053 21.8467 99.4088 23.3712 99.4251 26.0839C99.4413 28.7966 98.3617 31.4496 98.1121 31.5418C97.8625 31.6341 97.0108 21.8467 97.0108 21.8467H97.0053Z" fill="#263238"/>
<path d="M85.0803 23.2521C83.6372 26.1059 83.7077 35.0794 85.5144 37.3906C88.1294 40.7435 93.1641 41.8991 96.2078 38.5842C99.1538 35.3724 98.8554 23.6753 96.7666 21.4943C93.6958 18.2825 87.2179 19.042 85.0858 23.2521H85.0803Z" fill="#EB9481"/>
<path d="M92.7406 30.4458C92.7406 30.4458 92.6918 30.4784 92.6972 30.5001C92.7298 31.1131 92.6647 31.8184 92.1167 32.0354C92.1004 32.0409 92.1004 32.0734 92.1221 32.068C92.7949 31.9595 92.8708 31.0209 92.7406 30.4458Z" fill="#263238"/>
<path d="M92.1819 29.8165C91.1945 29.7623 91.1674 31.7425 92.0788 31.7859C92.9794 31.8348 93.0066 29.8599 92.1819 29.8165Z" fill="#263238"/>
<path d="M96.0883 30.4243C96.0883 30.4243 96.1371 30.4514 96.1371 30.4786C96.11 31.0916 96.1751 31.7969 96.7285 32.0085C96.7448 32.014 96.7448 32.0465 96.7231 32.0411C96.0503 31.938 95.9635 30.9994 96.0937 30.4243H96.0883Z" fill="#263238"/>
<path d="M96.6471 29.7894C97.6346 29.7297 97.678 31.7046 96.7665 31.7588C95.8659 31.8131 95.8225 29.8382 96.6471 29.7894Z" fill="#263238"/>
<path d="M91.5636 28.3139C91.8349 28.2487 92.0736 28.1457 92.334 28.0589C92.627 27.9558 92.8711 27.9069 93.0664 27.6465C93.1695 27.5055 93.1315 27.2559 93.0068 27.142C92.7138 26.8761 92.3232 26.9087 91.9651 27.0172C91.5745 27.1365 91.3032 27.3264 91.0753 27.6628C90.8529 27.9883 91.2055 28.4007 91.5582 28.3193L91.5636 28.3139Z" fill="#263238"/>
<path d="M97.3308 29.1927C97.0595 29.1439 96.8154 29.0517 96.5495 28.9757C96.2511 28.8889 96.0016 28.8509 95.7954 28.6014C95.6815 28.4657 95.7086 28.2162 95.828 28.0914C96.1047 27.8093 96.4953 27.8255 96.8642 27.9123C97.2602 28.01 97.537 28.1836 97.7865 28.5091C98.0252 28.8238 97.6997 29.2524 97.3362 29.1873L97.3308 29.1927Z" fill="#263238"/>
<path d="M91.3466 36.24C91.4931 36.3865 91.6342 36.5872 91.8566 36.6089C92.0682 36.6306 92.3178 36.5384 92.5185 36.4679C92.5402 36.4625 92.5565 36.4842 92.5456 36.5004C92.3829 36.7337 92.0465 36.8748 91.7644 36.8205C91.4877 36.7663 91.3575 36.5276 91.2924 36.2726C91.2815 36.2346 91.3304 36.2237 91.3521 36.2454L91.3466 36.24Z" fill="#263238"/>
<path d="M94.9 33.6253C94.9 33.6253 94.9271 34.5422 94.8783 34.9653C94.8783 35.0033 93.6739 34.77 92.3826 35.0522C92.1873 35.0956 92.209 34.9382 92.4315 34.8351C92.8818 34.629 93.446 34.4337 94.5528 34.553C94.5962 34.4391 94.4877 33.1424 94.5528 33.1478C94.7861 33.1533 95.231 33.3594 95.4968 33.4734C95.4968 31.5636 95.193 29.6702 95.2201 27.7713C95.2201 27.7062 95.3232 27.6953 95.334 27.755C95.7952 29.719 95.8386 31.9163 95.8928 33.8857C95.9037 34.1298 95.0628 33.7175 94.9 33.6253Z" fill="#263238"/>
<path d="M93.6795 34.6396C93.6795 34.6396 93.2509 35.7138 92.5402 36.0014C91.721 36.3323 91.4388 35.5891 92.2744 34.9326C92.7138 34.5908 93.6795 34.6396 93.6795 34.6396Z" fill="#263238"/>
<path d="M92.8277 35.8331C92.7354 35.9036 92.6432 35.9633 92.5401 36.0013C91.786 36.3051 91.4876 35.7029 92.0952 35.0952C92.5076 35.1278 92.9579 35.2797 92.8277 35.8331Z" fill="#FF99BA"/>
<path d="M84.6679 30.9342C85.6608 31.2381 86.8001 28.2541 87.1256 27.1094C87.4078 26.1002 87.7387 22.8938 87.7875 22.6714C87.8364 22.4544 92.1116 25.5089 94.6126 24.7764C97.1137 24.044 98.7848 21.8033 98.8173 20.7562C98.8499 19.7091 95.7466 17.0507 93.061 16.9151C90.3754 16.7794 86.7404 20.192 86.7404 20.192C86.7404 20.192 87.9774 18.7163 87.934 18.5969C87.8906 18.4776 86.1545 19.172 85.8344 20.4036C85.8344 20.4036 86.1762 18.8519 86.046 18.8248C85.9158 18.7977 84.5649 20.1269 84.8687 21.1306C84.8687 21.1306 83.3062 22.4815 83.1651 23.9626C83.0186 25.4438 83.5015 30.5707 84.6679 30.9288V30.9342Z" fill="#263238"/>
<path d="M96.3866 24.2553C95.627 24.6026 94.862 24.9878 94.0265 25.1017C93.1205 25.221 92.1765 24.9932 91.3301 24.6677C90.4675 24.3367 89.6808 23.8538 88.9647 23.2679C88.3407 22.7525 87.7819 22.134 87.1146 21.6728C86.9464 21.5589 86.7565 21.7976 86.8542 21.955C87.8687 23.4741 89.6645 24.749 91.3898 25.297C93.2073 25.8721 94.9217 25.4706 96.392 24.277C96.4029 24.2716 96.392 24.2499 96.3811 24.2553H96.3866Z" fill="#263238"/>
<path d="M85.7043 30.6683C85.7043 30.6683 84.1635 27.5432 82.7746 28.0478C81.3857 28.5524 82.2429 32.8764 83.6589 33.6631C85.075 34.4552 85.8345 33.1585 85.8345 33.1585L85.7043 30.6683Z" fill="#EB9481"/>
<path d="M83.0514 29.2794C83.0514 29.2794 83.0189 29.3065 83.0352 29.3173C84.0226 29.9087 84.4295 30.9721 84.6628 32.0409C84.4078 31.6014 84.0172 31.3247 83.4366 31.6177C83.4041 31.634 83.4258 31.6828 83.4583 31.6774C83.9032 31.6502 84.207 31.775 84.4403 32.1656C84.6085 32.4423 84.7008 32.7733 84.8093 33.0771C84.8418 33.1802 85.0208 33.1531 85.0046 33.0391V33.012C85.2324 31.6719 84.4783 29.632 83.0569 29.2739L83.0514 29.2794Z" fill="#263238"/>
<path d="M75.5318 44.6168C74.4684 50.7637 81.109 71.4724 85.3788 75.3407C91.7319 81.0916 103.478 84.8731 107.737 86.1046C109.592 86.6417 114.725 73.5883 112.847 72.7256C108.827 70.8864 96.3381 66.991 95.1608 65.9873C93.9835 64.9891 86.8057 54.6591 83.6156 48.7075C79.3349 40.7159 76.0635 41.508 75.5263 44.6168H75.5318Z" fill="#EB9481"/>
<path d="M109.684 71.5811C109.684 71.5811 115.224 72.9917 118.804 74.0876C120.801 74.6953 124.132 76.0516 125.396 77.1693C127.284 78.8457 134.109 87.0489 132.156 88.747C130.388 90.2824 125.418 82.4861 125.418 82.4861C125.418 82.4861 131.125 89.908 128.657 91.3675C126.188 92.8269 121.745 83.2728 121.745 83.2728C121.745 83.2728 127.442 91.0311 124.653 92.1324C122.548 92.9625 118.034 84.5369 118.034 84.5369C118.034 84.5369 122.884 91.2372 120.758 92.1867C118.408 93.2338 113.753 85.7196 113.753 85.7196C107.937 87.2225 104.557 85.5569 102.29 84.0866C101.742 83.7285 109.69 71.5757 109.69 71.5757L109.684 71.5811Z" fill="#EB9481"/>
<path d="M123.606 79.7951C124.306 80.6415 125.022 81.4987 125.652 82.4047C126.275 83.3108 126.867 84.2439 127.404 85.2042C128.722 87.5643 129.178 89.2461 129.14 89.143C128.207 86.7559 126.02 83.4735 125.397 82.5675C124.773 81.6615 124.198 80.7229 123.574 79.8168C123.557 79.7951 123.59 79.7734 123.612 79.7951H123.606Z" fill="#263238"/>
<path d="M120.291 81.9867C121.495 82.9416 124.018 86.4952 124.995 88.8715C125.038 88.9692 124.984 88.9638 124.924 88.8715C124.159 87.6942 121.083 83.1369 120.264 82.003C120.253 81.9867 120.275 81.9704 120.291 81.9867Z" fill="#263238"/>
<path d="M117.106 83.3594C118.501 84.7375 119.667 86.6201 120.59 88.7956C120.633 88.8933 120.552 88.877 120.497 88.7848C119.374 86.9564 118.506 85.5133 117.052 83.4028C117.031 83.3703 117.079 83.3214 117.112 83.354L117.106 83.3594Z" fill="#263238"/>
<path d="M81.5701 45.0729C76.6167 38.0687 73.6545 40.6621 74.6473 48.2684C75.5751 55.3811 78.0707 63.8556 78.0707 63.8556L90.5708 57.8008C90.5708 57.8008 84.7385 49.5597 81.5701 45.0729Z" fill="#28BFB2"/>
<path d="M84.5976 47.8237C84.7766 48.2252 84.8689 48.643 84.9502 49.0607C85.0208 49.4785 85.0696 49.9071 85.037 50.3411C84.858 49.9396 84.7603 49.5273 84.6844 49.1041C84.6193 48.6864 84.5705 48.2578 84.5976 47.8237Z" fill="white"/>
<path d="M77.2029 52.0879C77.6044 51.9089 78.0167 51.8167 78.4399 51.7353C78.8576 51.6648 79.2862 51.6159 79.7203 51.6485C79.3188 51.8275 78.9064 51.9252 78.4833 52.0011C78.0655 52.0662 77.6369 52.1151 77.2029 52.0879Z" fill="white"/>
<path d="M77.5229 41.1885C77.3655 41.5954 77.1377 41.9589 76.8989 42.3115C76.6494 42.6588 76.3835 42.9897 76.0526 43.2772C76.2099 42.8703 76.4378 42.5068 76.6765 42.1542C76.9261 41.807 77.1919 41.476 77.5229 41.1885Z" fill="white"/>
<path d="M88.0698 55.3594C87.9125 55.7663 87.6846 56.1298 87.4459 56.4824C87.1963 56.8297 86.9305 57.1606 86.5995 57.4481C86.7569 57.0412 86.9848 56.6777 87.2235 56.3251C87.473 55.9779 87.7389 55.6469 88.0698 55.3594Z" fill="white"/>
<path d="M79.4218 59.6075C79.0148 59.4501 78.6514 59.2223 78.2987 58.9836C77.9515 58.734 77.6205 58.4682 77.333 58.1372C77.7399 58.2945 78.1034 58.5224 78.456 58.7611C78.8033 59.0107 79.1342 59.2765 79.4218 59.6075Z" fill="white"/>
<path d="M83.2304 47.1777C83.8978 48.0946 84.5868 48.9898 85.2704 49.8904C85.0968 49.4347 84.9449 48.979 84.8092 48.5069C84.8038 48.4852 84.8364 48.4744 84.8418 48.4961C84.9828 48.8542 85.1347 49.2122 85.2704 49.5703C85.3355 49.7439 85.4006 49.9176 85.4657 50.0912C85.482 50.1291 85.4928 50.1671 85.5091 50.2051C86.0462 50.905 86.5779 51.6103 87.0879 52.3264C87.7009 53.1782 88.2923 54.0517 88.8891 54.9197C89.5022 55.8149 90.0881 56.8675 90.7337 57.7409C90.788 57.8169 89.627 58.2835 89.5184 58.3486C89.4099 58.4083 89.334 58.3052 89.4479 58.2672C89.5564 58.2347 90.4787 57.6704 90.4896 57.6596C89.8928 56.7861 89.2038 55.9777 88.5799 55.1205C87.9614 54.2687 87.3374 53.4223 86.7352 52.5543C85.5145 50.7965 84.3915 48.9735 83.1816 47.2103C83.1653 47.1886 83.2033 47.1669 83.2196 47.1886L83.2304 47.1777Z" fill="#263238"/>
<path d="M74.9567 53.2978C75.1466 53.6667 75.3528 54.0357 75.521 54.4154C75.5915 54.5728 75.6566 54.7301 75.7271 54.8875C75.4396 53.5311 75.1629 52.1802 74.8862 50.8238C74.8862 50.8076 74.9079 50.8021 74.9133 50.8184C75.4884 53.0157 76.0635 55.2076 76.5952 57.4157C77.1052 59.5207 77.7128 61.6475 78.0058 63.7959C78.1794 63.7362 79.1505 63.3348 79.1777 63.3999C79.2048 63.465 77.9081 64.078 77.8864 64.0238C77.1811 61.9296 76.7417 59.5424 76.2588 57.3886C76.1232 56.7809 75.9984 56.1733 75.8682 55.5602C75.7271 55.1913 75.559 54.8386 75.3908 54.486C75.2117 54.1062 75.0707 53.7156 74.9188 53.3249C74.9079 53.3032 74.9459 53.287 74.9567 53.3087V53.2978Z" fill="#263238"/>
<path d="M78.2717 61.7613C80.0078 60.7793 87.2615 57.025 88.8892 56.3197C89.0031 56.2708 89.0628 56.3305 88.9488 56.3956C83.8164 59.4555 80.0675 60.9529 78.3151 61.8318C78.2717 61.8535 78.2283 61.7939 78.2717 61.7667V61.7613Z" fill="#263238"/>
<path d="M277.074 204.394H111.774L135.673 68.8408H300.973L277.074 204.394Z" fill="#28BFB2"/>
<path d="M192.248 54.8003H138.152L135.672 68.8412H193.567L192.248 54.8003Z" fill="#28BFB2"/>
<g opacity="0.1">
<path d="M277.074 204.394H111.774L135.673 68.8408H300.973L277.074 204.394Z" fill="black"/>
<path d="M192.248 54.8003H138.152L135.672 68.8412H193.567L192.248 54.8003Z" fill="black"/>
</g>
<path d="M132.314 60.5292C132.102 59.7425 132.054 58.9558 132.043 58.1691C132.048 57.3824 132.097 56.5958 132.314 55.8091C132.531 56.5958 132.58 57.3824 132.585 58.1691C132.575 58.9558 132.526 59.7425 132.314 60.5292Z" fill="#263238"/>
<path d="M127.507 61.9184C126.927 61.3433 126.493 60.6868 126.091 60.0086C125.706 59.325 125.353 58.6197 125.147 57.8276C125.728 58.4027 126.162 59.0592 126.563 59.7374C126.948 60.421 127.301 61.1263 127.507 61.9184Z" fill="#263238"/>
<path d="M124.035 65.5261C123.248 65.3199 122.543 64.9672 121.854 64.582C121.176 64.1806 120.519 63.7465 119.944 63.166C120.731 63.3722 121.436 63.7248 122.125 64.11C122.804 64.5115 123.46 64.9455 124.035 65.5261Z" fill="#263238"/>
<path d="M122.836 70.3816C122.049 70.5932 121.263 70.642 120.476 70.6529C119.689 70.6475 118.903 70.5986 118.116 70.3816C118.903 70.1646 119.689 70.1158 120.476 70.1104C121.263 70.1212 122.049 70.17 122.836 70.3816Z" fill="#263238"/>
<path d="M124.225 75.189C123.65 75.7695 122.993 76.2035 122.315 76.605C121.632 76.9902 120.926 77.3428 120.134 77.549C120.709 76.9685 121.366 76.5345 122.044 76.133C122.728 75.7478 123.433 75.3951 124.225 75.189Z" fill="#263238"/>
<path d="M127.833 78.6611C127.627 79.4478 127.274 80.1531 126.889 80.8421C126.487 81.5203 126.053 82.1768 125.473 82.7519C125.679 81.9652 126.032 81.2599 126.417 80.5709C126.818 79.8927 127.252 79.2362 127.833 78.6611Z" fill="#263238"/>
<path d="M132.694 79.8599C132.906 80.6465 132.954 81.4332 132.965 82.2199C132.96 83.0066 132.911 83.7933 132.694 84.5799C132.477 83.7933 132.428 83.0066 132.423 82.2199C132.434 81.4332 132.482 80.6465 132.694 79.8599Z" fill="#263238"/>
<path d="M137.501 78.4712C138.081 79.0463 138.515 79.7028 138.917 80.3809C139.302 81.0645 139.655 81.7698 139.861 82.5619C139.28 81.9868 138.846 81.3304 138.445 80.6522C138.06 79.9686 137.707 79.2633 137.501 78.4712Z" fill="#263238"/>
<path d="M140.968 74.8633C141.754 75.0694 142.46 75.4221 143.149 75.8073C143.827 76.2088 144.483 76.6428 145.058 77.2233C144.272 77.0172 143.566 76.6645 142.877 76.2793C142.199 75.8778 141.543 75.4438 140.968 74.8633Z" fill="#263238"/>
<path d="M142.167 70.0022C142.953 69.7906 143.74 69.7418 144.527 69.731C145.313 69.7364 146.1 69.7852 146.887 70.0022C146.1 70.2192 145.313 70.2681 144.527 70.2735C143.74 70.2626 142.953 70.2138 142.167 70.0022Z" fill="#263238"/>
<path d="M140.778 65.195C141.353 64.6145 142.009 64.1805 142.687 63.779C143.371 63.3938 144.076 63.0411 144.868 62.835C144.293 63.4155 143.637 63.8495 142.959 64.251C142.275 64.6362 141.57 64.9888 140.778 65.195Z" fill="#263238"/>
<path d="M137.17 61.7284C137.376 60.9417 137.729 60.2364 138.114 59.5474C138.515 58.8693 138.949 58.2128 139.53 57.6377C139.324 58.4244 138.971 59.1297 138.586 59.8187C138.184 60.4969 137.75 61.1533 137.17 61.7284Z" fill="#263238"/>
<path d="M276.83 204.394H111.171L87.6523 73.7622H253.311L276.83 204.394Z" fill="#28BFB2"/>
<path d="M145.058 153.618C148.861 153.618 151.943 150.535 151.943 146.733C151.943 142.931 148.861 139.848 145.058 139.848C141.256 139.848 138.173 142.931 138.173 146.733C138.173 150.535 141.256 153.618 145.058 153.618Z" fill="#263238"/>
<path d="M199.485 153.618C203.288 153.618 206.37 150.535 206.37 146.733C206.37 142.931 203.288 139.848 199.485 139.848C195.683 139.848 192.601 142.931 192.601 146.733C192.601 150.535 195.683 153.618 199.485 153.618Z" fill="#263238"/>
<path d="M182.162 154.714L181.783 153.992C181.75 153.927 178.191 147.352 171.035 147.352C164.508 147.352 162.919 153.542 162.853 153.808L162.658 154.595L161.079 154.215L161.269 153.423C161.286 153.347 163.206 145.724 171.035 145.724C178.864 145.724 183.063 152.929 183.226 153.238L183.606 153.96L182.162 154.714Z" fill="#263238"/>
<path d="M265.838 145.941C266.19 145.865 266.543 145.784 266.896 145.691" stroke="#263238" stroke-width="0.542538" stroke-miterlimit="10"/>
<path d="M268.973 145.079C277.274 142.274 284.224 135.747 284.875 128.119C286.318 111.3 265.832 102.012 267.948 82.5728C269.966 64.0343 289.411 62.7105 297.207 65.2713C305.817 68.1033 302.866 76.377 295.069 75.3082C281.555 73.4582 273.059 58.7662 279.477 42.0995C284.273 29.6483 296.225 24.9499 301.081 23.5176" stroke="#263238" stroke-width="0.542538" stroke-miterlimit="10"/>
<path d="M302.139 23.2354C302.812 23.0617 303.191 22.9912 303.191 22.9912" stroke="#263238" stroke-width="0.542538" stroke-miterlimit="10"/>
<path d="M311.796 19.9911C310.413 15.705 301.146 17.2458 302.953 22.8448C304.76 28.4492 313.18 24.2771 311.796 19.9911Z" fill="#263238"/>
<path d="M297.913 18.26C297.983 16.3774 300.598 14.9343 304.298 15.6016C307.998 16.2689 311.481 18.7592 311.481 18.7592C311.481 18.7592 307.825 20.9944 304.087 21.3905C300.349 21.7865 297.847 20.1481 297.918 18.26H297.913Z" fill="#EBEBEB"/>
<path d="M311.476 18.7597C309.556 18.7705 307.641 18.7109 305.72 18.6512C303.805 18.5698 301.884 18.4939 299.974 18.3365C301.895 18.3202 303.81 18.3853 305.731 18.445C307.646 18.5264 309.567 18.6024 311.476 18.7597Z" fill="#263238"/>
<path d="M301.629 16.5947C302.182 16.8443 302.698 17.159 303.213 17.4682C303.718 17.7992 304.228 18.1247 304.694 18.5153C304.141 18.2657 303.626 17.9511 303.11 17.6418C302.606 17.3109 302.096 16.9854 301.629 16.5947Z" fill="#263238"/>
<path d="M306.658 18.5859C306.17 18.9983 305.644 19.3455 305.118 19.6981C304.581 20.0291 304.043 20.3655 303.468 20.6367C303.957 20.2244 304.483 19.8772 305.009 19.5245C305.546 19.1936 306.083 18.8572 306.658 18.5859Z" fill="#263238"/>
<path d="M307.217 17.5225C307.505 17.6472 307.744 17.8317 307.982 18.0107C308.21 18.2061 308.438 18.4014 308.623 18.6564C308.335 18.5316 308.096 18.3471 307.858 18.1681C307.63 17.9728 307.402 17.7775 307.217 17.5225Z" fill="#263238"/>
<path d="M301.439 29.4257C302.595 30.9122 305.563 30.5541 308.172 27.8523C310.782 25.1505 312.149 21.0923 312.149 21.0923C312.149 21.0923 307.874 21.4178 304.613 23.2841C301.352 25.1505 300.278 27.9391 301.439 29.4311V29.4257Z" fill="#EBEBEB"/>
<path d="M312.149 21.0869C310.581 22.1991 309.067 23.371 307.543 24.5429C306.035 25.731 304.526 26.9138 303.061 28.1562C304.629 27.044 306.143 25.8721 307.668 24.7002C309.176 23.5121 310.684 22.3293 312.149 21.0869Z" fill="#263238"/>
<path d="M305.427 28.6009C305.73 28.0747 305.964 27.5159 306.202 26.9625C306.419 26.3982 306.642 25.8394 306.788 25.248C306.485 25.7743 306.251 26.3331 306.013 26.8865C305.796 27.4507 305.573 28.0096 305.427 28.6009Z" fill="#263238"/>
<path d="M308.34 24.0493C307.705 24.0005 307.071 24.0276 306.441 24.0493C305.812 24.0927 305.177 24.1307 304.553 24.2501C305.188 24.2989 305.823 24.2718 306.452 24.2501C307.081 24.2067 307.716 24.1633 308.34 24.0493Z" fill="#263238"/>
<path d="M309.414 24.5808C309.577 24.315 309.658 24.0275 309.751 23.7399C309.821 23.4469 309.892 23.154 309.892 22.8447C309.729 23.1106 309.648 23.3981 309.555 23.6857C309.485 23.9786 309.414 24.2716 309.414 24.5808Z" fill="#263238"/>
<path d="M311.796 19.991C310.944 20.2677 310.027 19.7957 309.751 18.9439C309.474 18.0921 309.946 17.1752 310.798 16.8985C311.65 16.6218 312.567 17.0938 312.843 17.9456C313.12 18.7974 312.648 19.7143 311.796 19.991Z" fill="#455A64"/>
<path d="M312.795 23.0833C311.943 23.36 311.026 22.888 310.749 22.0362C310.473 21.1844 310.945 20.2675 311.796 19.9908C312.648 19.7141 313.565 20.1861 313.842 21.0379C314.118 21.8897 313.646 22.8066 312.795 23.0833Z" fill="#455A64"/>
<path d="M134.924 21.7053C134.148 29.1326 127.491 34.5254 120.069 33.7496C117.069 33.4349 114.399 32.16 112.332 30.2611L105.567 31.2539L108.952 25.4054C108.133 23.4089 107.786 21.1845 108.025 18.8949C108.8 11.4676 115.457 6.07478 122.879 6.85061C130.307 7.62644 135.699 14.2834 134.924 21.7053Z" fill="white"/>
<path d="M134.924 21.7057C134.641 24.1742 133.741 26.594 132.195 28.5579C131.842 29.0734 131.381 29.502 130.969 29.9685C130.497 30.3754 130.062 30.8258 129.542 31.1784C128.554 31.938 127.442 32.5347 126.281 32.9959C125.125 33.4842 123.883 33.7175 122.641 33.864C122.017 33.8965 121.387 33.9562 120.763 33.9019C120.134 33.8857 119.51 33.8206 118.892 33.7066C116.418 33.2563 114.074 32.1007 112.202 30.4026L112.359 30.4514L105.599 31.4876L105.111 31.5636L105.361 31.1296L108.724 25.2702L108.708 25.5035C107.07 21.646 107.439 17.0453 109.544 13.4537C110.591 11.6525 112.056 10.1008 113.781 8.94521C115.506 7.78418 117.503 7.05718 119.554 6.78049C121.604 6.50922 123.709 6.69368 125.668 7.34472C127.621 8.0012 129.417 9.10797 130.882 10.5403C133.866 13.3777 135.368 17.6367 134.929 21.7057H134.924ZM134.924 21.7057C135.336 17.6312 133.806 13.3994 130.817 10.6C129.335 9.2002 127.54 8.13683 125.603 7.52376C123.661 6.91612 121.588 6.76963 119.586 7.07346C117.59 7.37728 115.653 8.12598 114.003 9.28158C112.354 10.4426 110.965 11.9563 109.956 13.6924C108.931 15.4285 108.399 17.4196 108.242 19.4162C108.117 21.4181 108.442 23.4472 109.191 25.3081L109.24 25.4275L109.175 25.536L105.768 31.3737L105.524 31.0156L112.294 30.0662L112.387 30.0553L112.452 30.1205C114.242 31.8023 116.504 32.9742 118.924 33.4571C119.526 33.5764 120.139 33.6578 120.758 33.6795C121.376 33.7446 121.99 33.7012 122.608 33.6795C123.834 33.5547 125.066 33.3485 126.221 32.882C127.377 32.4479 128.5 31.8783 129.482 31.1241C130.003 30.7823 130.437 30.3375 130.909 29.9306C131.327 29.4694 131.782 29.0462 132.14 28.5362C133.692 26.5885 134.609 24.1797 134.907 21.7111L134.924 21.7057Z" fill="#263238"/>
<path d="M114.866 26.5992C114.866 25.7909 115.425 25.2104 116.19 25.2104C116.998 25.2104 117.514 25.7909 117.514 26.5992C117.514 27.4076 116.998 27.9881 116.19 27.9881C115.382 27.9881 114.866 27.3805 114.866 26.5992ZM115.425 23.3929L115.11 12.6289H117.264L116.949 23.3929H115.425Z" fill="#28BFB2"/>
<path d="M120.02 26.5992C120.02 25.7909 120.579 25.2104 121.344 25.2104C122.152 25.2104 122.668 25.7909 122.668 26.5992C122.668 27.4076 122.152 27.9881 121.344 27.9881C120.536 27.9881 120.02 27.3805 120.02 26.5992ZM120.579 23.3929L120.264 12.6289H122.418L122.104 23.3929H120.579Z" fill="#28BFB2"/>
<path d="M125.18 26.5992C125.18 25.7909 125.738 25.2104 126.503 25.2104C127.312 25.2104 127.827 25.7909 127.827 26.5992C127.827 27.4076 127.312 27.9881 126.503 27.9881C125.695 27.9881 125.18 27.3805 125.18 26.5992ZM125.738 23.3929L125.424 12.6289H127.578L127.263 23.3929H125.738Z" fill="#28BFB2"/>
</g>
<defs>
<clipPath id="clip0_160_68479">
<rect width="332" height="217.547" fill="white" transform="translate(-0.000244141 0.226562)"/>
</clipPath>
</defs>
</svg>
