<?xml version="1.0" encoding="UTF-8"?><svg id="Layer_2" xmlns="http://www.w3.org/2000/svg" xmlns:xlink="http://www.w3.org/1999/xlink" viewBox="0 0 911.85 120.09"><defs><style>.cls-1{fill:#080f13;}.cls-2{fill:#3dcdc2;fill-rule:evenodd;}</style><symbol id="Symbol_SocasiTeal" viewBox="0 0 490.16 350"><path class="cls-2" d="M17.5,175H205.46c24.58,0,47.36-12.89,60.01-33.96L334.87,25.47c9.49-15.8,26.57-25.47,45.01-25.47h92.79c9.66,0,17.5,7.84,17.5,17.5V157.5c0,9.66-7.84,17.5-17.5,17.5h-187.93c-24.6,0-47.39,12.91-60.04,34.01l-69.24,115.49c-9.49,15.82-26.58,25.5-45.03,25.5H17.5c-9.67,0-17.5-7.84-17.5-17.5V192.5c0-9.67,7.84-17.5,17.5-17.5Z"/></symbol></defs><g id="Layer_1-2"><g><use width="490.16" height="350" transform="translate(0 3.06) scale(.33)" xlink:href="#Symbol_SocasiTeal"/><g><path class="cls-1" d="M214.37,80.95l22.53-1.44c.79-.05,1.47,.55,1.52,1.35,.7,11.24,9.6,18.74,22.09,18.74,11.07,0,18.88-5.53,18.88-13.83,0-7.16-4.88-11.55-13.67-13.02l-14.16-1.95c-25.06-3.42-35.31-17.41-35.31-34.82,0-21.32,17.57-35.96,43.12-35.96,23.53,0,41.93,15.22,42.62,35.34,.03,.79-.57,1.47-1.37,1.51l-23.05,1.16c-.78,.04-1.44-.55-1.5-1.33-.75-9.82-7.73-16.5-17.84-16.5s-16.27,5.37-16.27,13.34c0,6.67,4.23,11.06,12.2,12.37l14.16,2.12c25.22,3.25,36.94,17.57,36.94,35.31,0,21.81-18.55,36.78-45.56,36.78s-45.94-15.32-46.68-37.68c-.03-.77,.58-1.41,1.35-1.46Z"/><path class="cls-1" d="M313.81,75.83c0-24.73,19.53-43.77,45.08-43.77s45.07,19.04,45.07,43.77-19.69,43.61-45.07,43.61-45.08-19.04-45.08-43.61Zm64.93,0c0-13.51-8.14-22.62-19.85-22.62s-19.85,9.11-19.85,22.62,8.14,22.62,19.85,22.62,19.85-9.28,19.85-22.62Z"/><path class="cls-1" d="M554.67,82.67h-55.15c-.86,0-1.53,.75-1.44,1.6,1.11,9.57,8.05,16.3,17.77,16.3,7.86,0,14.41-4.23,16.46-10.62,.2-.64,.82-1.05,1.48-1l19.11,1.57c.84,.07,1.44,.85,1.31,1.68-2.58,15.94-18.18,27.24-38.36,27.24-25.22,0-43.12-17.9-43.12-43.61s17.41-43.77,42.31-43.77,41.5,17.57,41.5,42.8c0,2.05-.12,4.34-.44,6.56-.11,.71-.71,1.25-1.43,1.25Zm-24.2-15.3c.83,0,1.51-.71,1.44-1.54-.72-8.67-7.49-15.06-17.02-15.06-8.92,0-15.66,5.96-16.79,14.99-.11,.85,.57,1.6,1.43,1.6h30.93Z"/><path class="cls-1" d="M654.48,91.25l19.95-.57c.75-.02,1.38,.54,1.47,1.29,.79,6.56,6.31,10.71,14.55,10.71,7.16,0,11.88-2.93,11.88-7.49,0-4.88-3.58-6.83-10.74-7.97l-10.9-1.79c-18.06-2.6-26.2-11.23-26.2-25.55,0-16.76,14.16-28.48,34.34-28.48s34.59,11.18,35.88,27.44c.07,.83-.58,1.54-1.41,1.56l-19.66,.43c-.73,.02-1.34-.51-1.45-1.23-1.02-6.47-6.33-10.78-13.37-10.78-6.02,0-10.58,3.42-10.58,8.14,0,3.74,2.6,6.18,7.65,7l11.07,1.79c19.36,2.93,29.45,12.37,29.45,26.53,0,16.44-14.81,27.83-35.96,27.83s-36.34-11.18-37.37-27.31c-.05-.82,.58-1.51,1.4-1.54Z"/><path class="cls-1" d="M733.79,75.83c0-24.73,19.53-43.77,45.08-43.77s45.08,19.04,45.08,43.77-19.69,43.61-45.08,43.61-45.08-19.04-45.08-43.61Zm64.93,0c0-13.51-8.14-22.62-19.85-22.62s-19.85,9.11-19.85,22.62,8.14,22.62,19.85,22.62,19.85-9.28,19.85-22.62Z"/><path class="cls-1" d="M599.91,38.54c1.18-1.97,2.99-3.5,5.16-4.25,2.7-.93,5.65-1.42,8.82-1.42,18.55,0,30.92,13.34,30.92,33.52v49.17c0,.8-.64,1.44-1.44,1.44h-22.02c-.8,0-1.44-.64-1.44-1.44v-45.43c0-10.9-5.37-17.25-14.65-17.25s-14.81,6.83-14.81,18.55v44.12c0,.8-.64,1.44-1.44,1.44h-22.02c-.8,0-1.44-.64-1.44-1.44V35.94c0-.8,.64-1.44,1.44-1.44h21.97c.81,0,1.47,.67,1.44,1.49l-.54,16.71c-.02,.74,.96,1.03,1.34,.39l8.7-14.55Z"/><path class="cls-1" d="M866.95,38.54c1.18-1.97,2.99-3.5,5.16-4.25,2.7-.93,5.65-1.42,8.82-1.42,18.55,0,30.92,13.34,30.92,33.52v49.17c0,.8-.64,1.44-1.44,1.44h-22.02c-.8,0-1.44-.64-1.44-1.44v-45.43c0-10.9-5.37-17.25-14.65-17.25s-14.81,6.83-14.81,18.55v44.12c0,.8-.64,1.44-1.44,1.44h-22.02c-.8,0-1.44-.64-1.44-1.44V35.94c0-.8,.64-1.44,1.44-1.44h21.97c.81,0,1.47,.67,1.44,1.49l-.54,16.71c-.02,.74,.96,1.03,1.34,.39l8.7-14.55Z"/><path class="cls-1" d="M437.8,67.37c0-5.84,4.74-10.58,10.58-10.58h19.6c.79,0,1.43-.64,1.43-1.43v-19.86c0-.71-.52-1.33-1.23-1.42-2.26-.29-4.55-.39-6.94-.39-3.17,0-6.22,.58-8.96,1.68-2,.8-3.67,2.26-4.78,4.11l-9.18,15.34c-.38,.64-1.37,.35-1.34-.4l.75-18.42c.03-.82-.62-1.5-1.44-1.5h-21.96c-.8,0-1.44,.64-1.44,1.44V115.56c0,.8,.64,1.44,1.44,1.44h22.02c.8,0,1.44-.64,1.44-1.44v-48.19Z"/></g></g></g></svg>