<svg width="332" height="262" viewBox="0 0 332 262" fill="none" xmlns="http://www.w3.org/2000/svg">
<g clip-path="url(#clip0_2653_84057)">
<path d="M142.037 162.581L141.432 166.323L140.774 170.345L134.792 207.017H125.014L130.989 170.345L131.647 166.323L132.259 162.581H142.037Z" fill="#EBEBEB"/>
<path d="M140.621 162.581C140.109 166.297 139.551 170.006 138.993 173.715L137.271 184.829L135.463 195.93L134.532 201.474L133.562 207.017L134.359 201.447L135.19 195.883L136.919 184.769L138.727 173.669C139.345 169.973 139.97 166.27 140.628 162.581H140.621Z" fill="#C7C7C7"/>
<path d="M141.432 166.323L140.774 170.345H130.989L131.647 166.323H141.432Z" fill="#C7C7C7"/>
<path d="M190.322 162.581L190.927 166.323L191.585 170.345L197.567 207.017H207.345L201.37 170.345L200.712 166.323L200.1 162.581H190.322Z" fill="#EBEBEB"/>
<path d="M191.771 162.581C192.283 166.297 192.841 170.006 193.4 173.715L195.121 184.829L196.929 195.93L197.86 201.474L198.83 207.017L198.033 201.447L197.202 195.883L195.474 184.769L193.666 173.669C193.047 169.973 192.423 166.27 191.764 162.581H191.771Z" fill="#C7C7C7"/>
<path d="M190.934 166.323H200.712L201.37 170.345H191.585L190.934 166.323Z" fill="#C7C7C7"/>
<path d="M141.678 152.265H133.927L134.891 145.039H140.714L141.678 152.265Z" fill="#C7C7C7"/>
<path d="M144.922 141.139C145.616 137.209 142.993 133.461 139.063 132.767C135.133 132.074 131.385 134.697 130.691 138.627C129.998 142.556 132.621 146.304 136.551 146.998C140.481 147.692 144.229 145.068 144.922 141.139Z" fill="#DBDBDB"/>
<path d="M143.148 141.139C143.848 138.185 142.021 135.222 139.066 134.522C136.112 133.822 133.15 135.65 132.45 138.604C131.75 141.558 133.577 144.521 136.531 145.221C139.486 145.921 142.448 144.093 143.148 141.139Z" fill="white"/>
<path d="M142.396 139.555C142.296 138.213 141.618 136.976 140.601 136.185C139.584 135.387 138.241 135.022 136.905 135.215C135.616 135.407 134.446 136.172 133.728 137.282C132.997 138.392 132.751 139.848 133.15 141.244C133.469 142.394 134.266 143.384 135.297 143.962C136.32 144.547 137.55 144.727 138.66 144.481C139.777 144.248 140.787 143.617 141.479 142.753C142.177 141.895 142.595 140.805 142.642 139.695C142.642 139.642 142.629 139.595 142.595 139.595C142.569 139.595 142.549 139.635 142.542 139.688C142.522 140.14 142.422 140.586 142.283 141.011C142.13 141.436 141.924 141.835 141.678 142.201C141.419 142.566 141.12 142.892 140.781 143.191C140.435 143.477 140.056 143.723 139.637 143.929C138.474 144.487 137.085 144.527 135.888 144.016C134.692 143.517 133.735 142.48 133.342 141.224C132.924 139.894 133.13 138.472 133.821 137.375C134.506 136.278 135.656 135.52 136.912 135.341C138.647 135.088 140.402 135.726 141.465 137.156C141.725 137.508 141.924 137.893 142.077 138.299C142.223 138.704 142.316 139.136 142.363 139.575C142.363 139.588 142.376 139.595 142.383 139.588C142.383 139.588 142.389 139.569 142.383 139.555H142.396Z" fill="#EBEBEB"/>
<path d="M141.751 139.555C141.651 138.398 141.06 137.355 140.196 136.677C139.325 135.999 138.182 135.68 137.038 135.839C135.935 135.992 134.918 136.637 134.293 137.594C133.655 138.545 133.429 139.808 133.761 141.024C134.027 142.028 134.725 142.899 135.622 143.397C136.52 143.902 137.59 144.055 138.554 143.836C139.524 143.623 140.395 143.078 140.993 142.32C141.598 141.569 141.957 140.639 141.997 139.668C141.997 139.622 141.984 139.582 141.951 139.582C141.924 139.582 141.904 139.615 141.897 139.661C141.818 141.243 140.807 142.633 139.391 143.324C138.394 143.816 137.185 143.856 136.148 143.417C135.111 142.985 134.273 142.081 133.947 140.997C133.595 139.848 133.788 138.618 134.386 137.681C134.984 136.743 135.981 136.105 137.052 135.966C138.534 135.773 140.01 136.298 140.934 137.508C141.153 137.807 141.326 138.133 141.465 138.478C141.598 138.824 141.678 139.189 141.725 139.568C141.725 139.582 141.738 139.582 141.744 139.582C141.744 139.582 141.751 139.562 141.744 139.555H141.751Z" fill="#EBEBEB"/>
<path d="M141.106 139.562C141.007 138.598 140.508 137.74 139.784 137.175C139.059 136.617 138.122 136.351 137.165 136.471C136.247 136.584 135.383 137.115 134.845 137.906C134.293 138.697 134.087 139.768 134.359 140.811C134.572 141.669 135.17 142.42 135.935 142.845C136.699 143.277 137.617 143.404 138.441 143.204C139.265 143.018 140.003 142.546 140.501 141.901C141.007 141.263 141.306 140.479 141.346 139.655C141.346 139.615 141.326 139.581 141.299 139.581C141.273 139.581 141.253 139.608 141.246 139.648C141.166 140.984 140.322 142.134 139.132 142.732C138.295 143.151 137.271 143.198 136.393 142.832C135.516 142.473 134.805 141.702 134.539 140.778C134.253 139.801 134.426 138.771 134.938 137.993C135.45 137.215 136.287 136.697 137.171 136.597C137.789 136.53 138.394 136.597 138.946 136.81C139.498 137.022 140.003 137.375 140.388 137.867C140.575 138.112 140.721 138.385 140.84 138.664C140.953 138.95 141.027 139.256 141.073 139.568C141.073 139.575 141.086 139.581 141.093 139.575C141.093 139.575 141.1 139.562 141.093 139.548L141.106 139.562Z" fill="#EBEBEB"/>
<path d="M140.468 139.568C140.369 138.79 139.963 138.126 139.385 137.68C138.806 137.242 138.075 137.029 137.304 137.102C136.573 137.175 135.868 137.587 135.41 138.225C134.951 138.857 134.765 139.734 134.971 140.598C135.137 141.31 135.629 141.941 136.267 142.287C136.899 142.639 137.663 142.739 138.341 142.566C139.019 142.406 139.617 142.008 140.023 141.476C140.428 140.944 140.674 140.313 140.714 139.641C140.714 139.608 140.694 139.581 140.668 139.581C140.641 139.581 140.621 139.608 140.614 139.635C140.541 140.718 139.85 141.635 138.899 142.134C138.228 142.486 137.384 142.539 136.666 142.24C135.948 141.948 135.363 141.31 135.157 140.559C134.938 139.761 135.091 138.917 135.516 138.305C135.941 137.687 136.626 137.288 137.324 137.222C137.816 137.182 138.288 137.242 138.72 137.401C139.152 137.561 139.558 137.833 139.87 138.219C140.023 138.412 140.136 138.624 140.242 138.85C140.335 139.076 140.402 139.316 140.448 139.575C140.448 139.575 140.462 139.588 140.468 139.581C140.468 139.581 140.475 139.568 140.468 139.562V139.568Z" fill="#EBEBEB"/>
<path d="M198.265 152.264H190.508L191.472 145.038H197.302L198.265 152.264Z" fill="#C7C7C7"/>
<path d="M201.536 140.963C202.138 137.018 199.429 133.332 195.484 132.73C191.539 132.128 187.853 134.837 187.251 138.782C186.648 142.727 189.358 146.413 193.303 147.015C197.248 147.617 200.934 144.908 201.536 140.963Z" fill="#DBDBDB"/>
<path d="M199.818 140.693C200.276 137.691 198.213 134.887 195.212 134.43C192.211 133.972 189.407 136.034 188.949 139.035C188.491 142.037 190.553 144.841 193.555 145.298C196.556 145.756 199.36 143.694 199.818 140.693Z" fill="white"/>
<path d="M198.983 139.554C198.884 138.212 198.206 136.975 197.189 136.184C196.172 135.386 194.829 135.021 193.493 135.214C192.203 135.406 191.033 136.171 190.315 137.281C189.584 138.391 189.338 139.847 189.737 141.243C190.056 142.393 190.854 143.383 191.884 143.961C192.908 144.546 194.138 144.726 195.248 144.48C196.364 144.247 197.375 143.616 198.073 142.752C198.771 141.894 199.189 140.804 199.236 139.694C199.236 139.641 199.223 139.594 199.189 139.594C199.163 139.594 199.143 139.634 199.136 139.687C199.116 140.139 199.017 140.585 198.877 141.01C198.724 141.435 198.518 141.834 198.272 142.2C198.013 142.565 197.714 142.891 197.375 143.19C197.029 143.476 196.65 143.722 196.231 143.928C195.068 144.486 193.679 144.526 192.482 144.015C191.286 143.516 190.329 142.479 189.937 141.223C189.518 139.893 189.724 138.471 190.415 137.374C191.1 136.277 192.25 135.519 193.506 135.34C195.241 135.087 196.996 135.725 198.059 137.155C198.319 137.507 198.518 137.892 198.671 138.298C198.817 138.703 198.91 139.136 198.957 139.574C198.957 139.588 198.97 139.594 198.977 139.588C198.977 139.588 198.983 139.568 198.977 139.554H198.983Z" fill="#EBEBEB"/>
<path d="M198.339 139.554C198.239 138.397 197.647 137.354 196.783 136.676C195.912 135.998 194.769 135.679 193.626 135.838C192.522 135.991 191.505 136.636 190.88 137.593C190.242 138.544 190.016 139.807 190.349 141.023C190.615 142.027 191.313 142.898 192.21 143.396C193.107 143.901 194.177 144.054 195.141 143.835C196.112 143.622 196.983 143.077 197.581 142.319C198.186 141.568 198.545 140.638 198.585 139.667C198.585 139.621 198.571 139.581 198.538 139.581C198.511 139.581 198.491 139.614 198.485 139.66C198.405 141.242 197.395 142.632 195.979 143.323C194.982 143.815 193.772 143.855 192.735 143.416C191.698 142.984 190.861 142.08 190.535 140.997C190.183 139.847 190.375 138.617 190.974 137.68C191.572 136.742 192.569 136.104 193.639 135.965C195.121 135.772 196.597 136.297 197.521 137.507C197.74 137.806 197.913 138.132 198.053 138.477C198.186 138.823 198.265 139.188 198.312 139.567C198.312 139.581 198.325 139.581 198.332 139.581C198.332 139.581 198.339 139.561 198.332 139.554H198.339Z" fill="#EBEBEB"/>
<path d="M197.694 139.561C197.594 138.597 197.096 137.739 196.371 137.174C195.646 136.616 194.709 136.35 193.752 136.47C192.835 136.583 191.977 137.114 191.432 137.905C190.88 138.696 190.674 139.767 190.947 140.81C191.16 141.668 191.758 142.419 192.522 142.844C193.287 143.276 194.204 143.403 195.028 143.203C195.853 143.017 196.59 142.545 197.089 141.9C197.594 141.262 197.893 140.478 197.933 139.654C197.933 139.614 197.913 139.58 197.887 139.58C197.86 139.58 197.84 139.607 197.833 139.647C197.754 140.983 196.909 142.133 195.72 142.731C194.882 143.15 193.858 143.197 192.981 142.831C192.104 142.472 191.392 141.701 191.126 140.777C190.841 139.8 191.013 138.77 191.525 137.992C192.037 137.214 192.875 136.696 193.759 136.596C194.377 136.529 194.982 136.596 195.533 136.809C196.085 137.021 196.59 137.374 196.976 137.866C197.162 138.111 197.308 138.384 197.428 138.663C197.541 138.949 197.614 139.255 197.661 139.567C197.661 139.574 197.674 139.58 197.68 139.574C197.68 139.574 197.687 139.561 197.68 139.547L197.694 139.561Z" fill="#EBEBEB"/>
<path d="M197.049 139.567C196.949 138.789 196.544 138.125 195.966 137.679C195.387 137.241 194.656 137.028 193.885 137.101C193.154 137.174 192.449 137.586 191.991 138.224C191.532 138.856 191.346 139.733 191.552 140.597C191.718 141.309 192.21 141.94 192.848 142.286C193.479 142.638 194.244 142.738 194.922 142.565C195.6 142.406 196.198 142.007 196.604 141.475C197.009 140.943 197.255 140.312 197.295 139.64C197.295 139.607 197.275 139.58 197.248 139.58C197.222 139.58 197.202 139.607 197.195 139.634C197.122 140.717 196.431 141.634 195.48 142.133C194.809 142.485 193.965 142.538 193.247 142.239C192.529 141.947 191.944 141.309 191.738 140.558C191.519 139.76 191.671 138.916 192.097 138.304C192.522 137.686 193.207 137.287 193.905 137.221C194.397 137.181 194.869 137.241 195.301 137.4C195.733 137.56 196.138 137.832 196.451 138.218C196.604 138.411 196.717 138.623 196.823 138.849C196.916 139.075 196.983 139.315 197.029 139.574C197.029 139.574 197.042 139.587 197.049 139.58C197.049 139.58 197.056 139.567 197.049 139.561V139.567Z" fill="#EBEBEB"/>
<path d="M214.903 148.582H117.449V167.221H214.903V148.582Z" fill="#DBDBDB"/>
<path d="M137.484 148.582L130.411 167.221H117.821L124.894 148.582H137.484Z" fill="#EBEBEB"/>
<path d="M163.281 148.582L156.209 167.221H143.619L150.692 148.582H163.281Z" fill="#EBEBEB"/>
<path d="M189.079 148.582L182 167.221H169.417L176.489 148.582H189.079Z" fill="#EBEBEB"/>
<path d="M214.877 148.582L207.804 167.221H195.214L202.287 148.582H214.877Z" fill="#EBEBEB"/>
<path d="M212.936 184.457H119.423V196.256H212.936V184.457Z" fill="#DBDBDB"/>
<path d="M138.64 184.457L131.86 196.256H119.782L126.569 184.457H138.64Z" fill="#EBEBEB"/>
<path d="M163.401 184.457L156.614 196.256H144.53L151.316 184.457H163.401Z" fill="#EBEBEB"/>
<path d="M188.148 184.457L181.362 196.256H169.284L176.071 184.457H188.148Z" fill="#EBEBEB"/>
<path d="M212.903 184.457L206.116 196.256H194.038L200.825 184.457H212.903Z" fill="#EBEBEB"/>
<path d="M310.955 59.8092H235.722C235.722 59.8092 243.18 39.4355 254.66 39.4355C266.14 39.4355 269.736 53.501 269.736 53.501C269.736 53.501 277.48 45.8634 283.841 45.8634C290.203 45.8634 295.733 55.9604 295.733 55.9604C295.733 55.9604 304.727 50.5297 310.948 59.8158L310.955 59.8092Z" fill="#EBEBEB"/>
<path d="M109.326 12.0225H74.1693C74.1693 12.0225 82.0196 0.642578 88.2147 0.642578C94.4099 0.642578 96.2312 8.23366 96.2312 8.23366C96.2312 8.23366 100.598 4.69071 104.647 5.32219C108.695 5.95367 109.326 12.0225 109.326 12.0225Z" fill="#EBEBEB"/>
<path d="M298.977 93.9757H263.82C263.82 93.9757 271.677 82.5957 277.865 82.5957C284.054 82.5957 285.882 90.1868 285.882 90.1868C285.882 90.1868 290.249 86.6438 294.297 87.2753C298.345 87.9068 298.977 93.9757 298.977 93.9757Z" fill="#EBEBEB"/>
<path d="M89.8898 40.5452H21.4039C21.4039 40.5452 30.7831 19.6066 40.8137 18.2971C50.8443 16.9876 55.6436 33.8515 55.6436 33.8515C55.6436 33.8515 62.1113 27.889 67.203 27.889C72.2947 27.889 76.2166 35.7393 76.2166 35.7393C76.2166 35.7393 86.3934 30.3617 89.8832 40.5386L89.8898 40.5452Z" fill="#EBEBEB"/>
<path d="M23.87 207.184L59.1134 207.024L94.3567 206.965L164.85 206.852L235.343 206.965L270.587 207.024L305.83 207.184L270.587 207.35L235.343 207.403L164.85 207.516L94.3567 207.403L59.1134 207.35L23.87 207.184Z" fill="#263238"/>
<path d="M166.179 259.571C243.306 259.571 305.83 252.282 305.83 243.292C305.83 234.301 243.306 227.013 166.179 227.013C89.0526 227.013 26.5289 234.301 26.5289 243.292C26.5289 252.282 89.0526 259.571 166.179 259.571Z" fill="#EBEBEB"/>
<path d="M184.439 246.329C185.822 246.794 225.399 246.934 226.915 245.99C227.493 245.631 227.845 239.868 228.078 232.895C228.131 231.386 228.171 229.83 228.204 228.255L231.415 207.144L204.952 206.971L202.453 228.089L202.553 232.735C202.553 232.735 187.377 239.462 185.829 240.679C184.286 241.895 183.05 245.87 184.433 246.335L184.439 246.329Z" fill="#EB9481"/>
<path d="M184.439 246.329C185.822 246.794 225.399 246.933 226.915 245.99C227.613 245.551 227.998 237.135 228.211 228.248L202.466 228.082L202.566 232.728C202.566 232.728 187.391 239.455 185.842 240.672C184.3 241.888 183.063 245.863 184.446 246.329H184.439Z" fill="white"/>
<path d="M184.439 246.329C185.822 246.794 225.399 246.934 226.915 245.99C227.493 245.631 227.845 239.868 228.078 232.895L202.559 232.729C202.559 232.729 187.384 239.455 185.835 240.672C184.293 241.888 183.057 245.863 184.439 246.329Z" fill="#28BFB2"/>
<path d="M185.018 244.747C191.651 244.608 218.426 244.674 225 245.04C225.054 245.04 225.054 245.08 225 245.08C218.426 245.359 191.651 245.08 185.018 244.86C184.878 244.86 184.878 244.754 185.018 244.754V244.747Z" fill="#263238"/>
<path d="M188.388 239.256C189.963 239.196 191.499 239.948 192.349 240.891C193.174 241.795 193.872 243.065 193.818 244.441C193.818 244.481 193.745 244.481 193.739 244.441C193.366 241.842 191.013 239.555 188.388 239.343C188.335 239.343 188.335 239.263 188.388 239.263V239.256Z" fill="#263238"/>
<path d="M199.987 233.374C202.646 233.347 205.717 234.298 207.359 236.471C207.425 236.558 207.299 236.644 207.226 236.604C204.826 235.361 202.553 234.43 199.94 233.699C199.754 233.646 199.794 233.374 199.987 233.374Z" fill="#263238"/>
<path d="M197.933 234.171C200.592 234.145 203.663 235.089 205.305 237.269C205.371 237.355 205.245 237.442 205.172 237.402C202.779 236.159 200.499 235.228 197.887 234.497C197.7 234.444 197.74 234.171 197.933 234.171Z" fill="#263238"/>
<path d="M195.879 234.962C198.538 234.936 201.609 235.886 203.251 238.06C203.317 238.146 203.191 238.233 203.118 238.193C200.725 236.95 198.445 236.019 195.833 235.288C195.646 235.235 195.686 234.962 195.879 234.962Z" fill="#263238"/>
<path d="M193.825 235.753C196.484 235.727 199.555 236.677 201.197 238.851C201.263 238.937 201.137 239.024 201.064 238.984C198.671 237.741 196.391 236.81 193.779 236.079C193.592 236.026 193.632 235.753 193.825 235.753Z" fill="#263238"/>
<path d="M223.325 238.731C226.303 238.751 226.283 243.378 223.299 243.365C220.321 243.345 220.341 238.718 223.325 238.731Z" fill="#263238"/>
<path d="M197.341 230.176C198.771 232.031 200.944 233.201 202.832 234.517C203.025 234.657 203.251 234.497 203.311 234.304C203.357 234.304 203.397 234.284 203.397 234.231C203.257 231.945 202.347 229.312 201.011 227.431C200.186 226.268 198.498 225.178 197.149 226.288C195.872 227.338 196.517 229.1 197.348 230.183L197.341 230.176ZM197.228 227.976C197.501 225.085 200.1 227.318 200.678 228.196C201.044 228.761 201.356 229.379 201.642 229.99C202.247 231.267 202.653 232.603 203.124 233.932C202.24 233.227 201.296 232.609 200.386 231.938C199.302 231.14 197.082 229.565 197.228 227.976Z" fill="#263238"/>
<path d="M212.829 232.563C212.63 230.828 210.649 230.449 209.253 230.709C206.986 231.134 204.507 232.397 202.819 233.952C202.779 233.992 202.792 234.039 202.825 234.065C202.732 234.245 202.785 234.511 203.025 234.551C205.298 234.91 207.678 235.581 209.991 235.229C211.34 235.029 213.022 234.198 212.836 232.563H212.829ZM206.574 234.391C205.451 234.238 204.348 234.039 203.218 233.926C204.474 233.294 205.697 232.616 207.02 232.111C207.651 231.872 208.303 231.639 208.961 231.486C209.984 231.254 213.401 231.446 211.6 233.72C210.603 234.969 207.917 234.564 206.581 234.391H206.574Z" fill="#263238"/>
<path d="M270.301 109.55C270.301 109.55 239.571 161.823 238.753 165.492C237.49 171.129 230.79 226.826 230.79 226.826L198.817 226.248C198.817 226.248 204.328 177.145 209.546 160.966C213.308 149.313 240.422 110.667 240.422 110.667L270.301 109.55Z" fill="#37474F"/>
<path d="M201.715 221.349C206.308 221.316 222.574 221.13 228.69 221.702C228.736 221.702 228.736 221.781 228.69 221.788C226.589 222.087 206.302 221.622 201.715 221.476C201.629 221.476 201.629 221.349 201.715 221.349Z" fill="#263238"/>
<path d="M265.056 114.349C263.042 117.507 260.915 120.598 258.861 123.729C256.8 126.859 254.747 129.997 252.726 133.154C248.678 139.456 244.736 145.824 240.867 152.238C239.052 155.243 237.324 158.281 236.075 161.558C234.838 164.808 234.001 168.185 233.376 171.588C232.751 175.018 232.339 178.481 231.947 181.945C231.535 185.634 231.122 189.323 230.71 193.006C229.866 200.55 229.029 208.101 228.184 215.646C228.078 216.57 227.978 217.5 227.885 218.424C227.872 218.557 228.111 218.584 228.131 218.451C229.068 210.953 229.853 203.428 230.71 195.924C231.136 192.188 231.561 188.446 231.987 184.71C232.379 181.233 232.758 177.757 233.296 174.294C233.828 170.897 234.512 167.514 235.549 164.23C236.626 160.793 238.162 157.569 239.97 154.445C243.672 148.057 247.594 141.776 251.516 135.507C255.471 129.186 259.459 122.891 263.601 116.683C264.112 115.918 264.624 115.154 265.156 114.403C265.196 114.343 265.096 114.29 265.056 114.349Z" fill="#263238"/>
<path d="M243.134 250.723C244.59 250.816 283.861 240.466 285.084 239.163C285.124 239.117 285.157 239.031 285.177 238.898C285.337 237.615 283.323 232.789 281.913 226.614C281.827 226.221 281.089 224.347 280.052 221.814C277.207 214.861 272.122 202.93 272.122 202.93L246.477 209.504L255.923 228.481L257.199 232.948C257.199 232.948 244.231 243.318 243.047 244.893C241.871 246.462 241.685 250.623 243.134 250.723Z" fill="#EB9481"/>
<path d="M243.134 250.723C244.59 250.816 283.861 240.466 285.084 239.164C285.124 239.117 285.157 239.031 285.177 238.898C285.337 237.615 283.323 232.789 281.913 226.614C281.827 226.222 281.089 224.347 280.052 221.814L255.923 228.482L257.199 232.948C257.199 232.948 244.231 243.318 243.047 244.893C241.871 246.462 241.685 250.623 243.134 250.723Z" fill="white"/>
<path d="M243.134 250.723C244.59 250.822 283.854 240.466 285.078 239.163C285.543 238.671 284.526 233.36 281.913 226.613L257.193 232.948C257.193 232.948 244.224 243.318 243.041 244.886C241.864 246.455 241.678 250.616 243.134 250.716V250.723Z" fill="#28BFB2"/>
<path d="M243.287 249.048C249.668 247.226 275.579 240.466 282.026 239.15C282.08 239.137 282.086 239.177 282.04 239.19C275.752 241.138 249.788 247.678 243.32 249.154C243.18 249.187 243.16 249.088 243.293 249.048H243.287Z" fill="#263238"/>
<path d="M245.155 242.872C246.664 242.413 248.339 242.752 249.402 243.444C250.426 244.108 251.43 245.159 251.729 246.501C251.735 246.541 251.669 246.561 251.649 246.521C250.632 244.102 247.774 242.486 245.175 242.952C245.121 242.958 245.101 242.885 245.155 242.872Z" fill="#263238"/>
<path d="M254.873 234.238C257.432 233.533 260.649 233.666 262.79 235.355C262.869 235.421 262.776 235.534 262.69 235.521C260.058 234.929 257.618 234.603 254.906 234.564C254.713 234.564 254.687 234.284 254.866 234.238H254.873Z" fill="#263238"/>
<path d="M253.091 235.527C255.65 234.822 258.868 234.955 261.008 236.644C261.088 236.71 260.995 236.823 260.908 236.803C258.276 236.205 255.837 235.886 253.125 235.846C252.932 235.846 252.905 235.567 253.085 235.52L253.091 235.527Z" fill="#263238"/>
<path d="M251.303 236.817C253.862 236.112 257.08 236.245 259.22 237.934C259.3 238 259.207 238.113 259.12 238.1C256.488 237.502 254.049 237.183 251.336 237.143C251.144 237.143 251.117 236.863 251.297 236.817H251.303Z" fill="#263238"/>
<path d="M249.522 238.106C252.081 237.401 255.298 237.534 257.439 239.223C257.518 239.289 257.425 239.402 257.339 239.389C254.707 238.797 252.267 238.472 249.555 238.432C249.362 238.432 249.336 238.153 249.515 238.106H249.522Z" fill="#263238"/>
<path d="M278.809 233.473C281.694 232.736 282.851 237.216 279.959 237.96C277.074 238.698 275.918 234.218 278.809 233.473Z" fill="#263238"/>
<path d="M251.496 231.818C253.351 233.247 255.75 233.825 257.911 234.616C258.137 234.696 258.309 234.49 258.316 234.291C258.356 234.284 258.396 234.251 258.376 234.198C257.658 232.017 256.103 229.711 254.334 228.228C253.244 227.318 251.33 226.686 250.306 228.102C249.342 229.445 250.406 230.98 251.489 231.818H251.496ZM250.825 229.717C250.353 226.852 253.437 228.348 254.215 229.053C254.713 229.505 255.172 230.03 255.604 230.542C256.515 231.625 257.252 232.815 258.043 233.972C257.007 233.52 255.943 233.154 254.886 232.742C253.63 232.25 251.084 231.293 250.825 229.711V229.717Z" fill="#263238"/>
<path d="M267.084 230.182C266.445 228.554 264.438 228.693 263.155 229.305C261.075 230.295 258.994 232.15 257.758 234.077C257.724 234.124 257.758 234.164 257.791 234.184C257.751 234.377 257.871 234.629 258.103 234.603C260.39 234.37 262.863 234.41 265.016 233.486C266.273 232.947 267.689 231.718 267.084 230.182ZM261.5 233.546C260.377 233.685 259.253 233.772 258.137 233.951C259.193 233.021 260.204 232.05 261.354 231.232C261.899 230.84 262.47 230.448 263.069 230.136C263.999 229.644 267.356 228.966 266.186 231.625C265.541 233.087 262.836 233.379 261.5 233.552V233.546Z" fill="#263238"/>
<path d="M254.162 227.265L282.884 219.727C282.884 219.727 255.385 165.599 255.604 161.863C255.803 158.553 275.752 129.505 276.855 124.067C278.663 115.167 274.322 107.217 270.121 102.291L240.409 110.666C240.409 110.666 242.775 115.805 247.122 119.049C247.122 119.049 228.45 150.224 227.972 160.487C227.493 170.803 254.155 227.265 254.155 227.265H254.162Z" fill="#37474F"/>
<path d="M253.616 221.92C257.784 220.724 256.568 221.01 260.749 219.866C262.796 219.308 276.243 215.632 278.238 215.439C278.284 215.439 278.297 215.506 278.258 215.526C276.423 216.35 262.916 219.787 260.862 220.312C256.661 221.375 257.857 221.023 253.643 222.047C253.563 222.067 253.53 221.947 253.61 221.927L253.616 221.92Z" fill="#263238"/>
<path d="M242.569 117.859C245.42 118.862 248.172 120.271 250.798 121.74C250.898 121.8 250.831 121.953 250.718 121.907C247.946 120.697 245.115 119.54 242.416 118.184C242.203 118.078 242.356 117.785 242.575 117.865L242.569 117.859Z" fill="#263238"/>
<path d="M246.059 117.128C246.271 117.647 246.444 118.185 246.59 118.73C246.703 119.149 246.856 119.608 246.796 120.04C246.783 120.126 246.67 120.133 246.624 120.073C246.338 119.707 246.225 119.215 246.065 118.79C245.886 118.292 245.693 117.8 245.527 117.301C245.414 116.969 245.919 116.809 246.052 117.128H246.059Z" fill="#263238"/>
<path d="M246.059 114.436C245.939 113.977 245.826 113.525 245.693 113.073C245.56 112.601 245.401 112.136 245.301 111.657C245.288 111.584 245.168 111.617 245.188 111.69C245.307 112.149 245.361 112.621 245.44 113.086C245.52 113.552 245.613 114.017 245.7 114.482C245.873 115.346 246.105 116.21 246.358 117.061C245.899 116.995 245.427 116.915 245.035 116.656C244.61 116.37 244.397 115.852 244.224 115.386C244.038 114.868 243.872 114.343 243.679 113.831C243.466 113.259 243.22 112.694 243.107 112.096C243.094 112.023 242.974 112.056 242.994 112.129C243.267 113.372 243.533 114.615 244.051 115.798C244.257 116.264 244.41 116.736 244.862 116.968C245.354 117.214 245.919 117.254 246.457 117.281C246.524 117.307 246.61 117.281 246.597 117.194C246.457 116.277 246.291 115.34 246.059 114.436Z" fill="#263238"/>
<path d="M246.551 120.079C245.42 122.12 244.124 124.074 242.921 126.075C241.745 128.022 240.621 130.003 239.518 132.004C237.298 136.039 235.237 140.167 233.356 144.368C232.425 146.448 231.548 148.549 230.724 150.676C229.899 152.803 229.082 154.957 228.563 157.19C228.045 159.43 227.925 161.69 228.271 163.957C228.63 166.264 229.321 168.497 230.019 170.717C231.614 175.782 233.382 180.801 235.629 185.62C235.702 185.78 235.968 185.66 235.915 185.494C234.346 181.067 232.718 176.653 231.309 172.173C229.939 167.826 228.324 163.319 229.075 158.699C229.441 156.472 230.179 154.325 230.963 152.218C231.761 150.064 232.625 147.937 233.542 145.83C235.343 141.676 237.371 137.641 239.438 133.619C240.595 131.366 241.818 129.146 242.988 126.892C244.164 124.626 245.321 122.319 246.65 120.132C246.69 120.072 246.584 120.013 246.551 120.079Z" fill="#263238"/>
<path d="M268.187 115.719C267.649 115.626 266.864 115.818 264.531 115.659C263.886 115.612 263.248 115.493 262.617 115.346C261.985 115.2 261.347 115.041 260.842 114.629C259.984 113.931 259.333 112.801 258.815 111.837C258.243 110.78 257.665 109.57 257.399 108.394C257.385 108.32 257.279 108.354 257.292 108.427C257.412 109.105 257.485 109.789 257.665 110.461C257.831 111.092 258.077 111.71 258.343 112.309C258.841 113.425 259.419 114.622 260.423 115.38C261.473 116.171 262.942 116.317 264.212 116.41C264.95 116.463 267.835 116.383 268.227 115.971C268.293 115.898 268.293 115.739 268.187 115.725V115.719Z" fill="#263238"/>
<path d="M275.758 213.525C272.135 206.153 268.606 198.742 265.163 191.29C261.706 183.819 258.343 176.308 255.039 168.763C254.248 166.962 253.304 165.14 252.892 163.199C252.447 161.092 253.098 159.191 253.982 157.297C255.611 153.827 257.518 150.49 259.532 147.233C261.553 143.962 263.687 140.765 265.787 137.548C267.875 134.357 270.075 131.173 271.783 127.763C273.418 124.506 274.329 121.023 273.857 117.367C273.392 113.738 271.823 110.334 270.135 107.124C269.689 106.28 269.237 105.435 268.785 104.591C268.752 104.525 268.652 104.591 268.686 104.651C270.567 108.008 272.368 111.537 273.239 115.313C273.671 117.174 273.857 119.109 273.658 121.01C273.452 122.944 272.847 124.812 272.042 126.573C270.48 130.003 268.307 133.167 266.246 136.312C264.146 139.529 262.005 142.719 259.958 145.977C257.904 149.254 255.943 152.59 254.235 156.067C253.477 157.616 252.646 159.224 252.46 160.966C252.26 162.867 252.945 164.695 253.676 166.417C256.874 173.908 260.23 181.326 263.654 188.718C267.084 196.136 270.607 203.508 274.209 210.846C274.661 211.77 275.12 212.694 275.572 213.618C275.632 213.731 275.798 213.625 275.738 213.512L275.758 213.525Z" fill="#263238"/>
<path d="M239.804 46.8411C240.442 43.8033 243.845 36.9235 250.512 38.2729C260.031 40.1939 261.407 58.5335 266.146 64.2501C274.728 74.6064 275.007 84.8563 267.974 86.4982C260.091 88.3328 252.42 79.8776 252.706 61.5713C252.885 50.1248 249.655 45.053 247.375 45.392C245.095 45.731 243.845 48.6226 243.845 48.6226L239.804 46.8411Z" fill="#263238"/>
<path d="M240.123 45.704C240.588 44.2948 241.226 42.9454 242.03 41.6758C242.835 40.4128 243.858 39.2562 245.141 38.4054C246.411 37.5412 247.98 37.0759 249.542 37.1291C251.077 37.1823 252.613 37.5878 253.962 38.3522C255.311 39.1299 256.422 40.24 257.306 41.4697C258.183 42.7127 258.874 44.0621 259.439 45.4447C260.536 48.2365 261.194 51.148 261.64 54.0728C260.875 51.2145 260.004 48.3828 258.835 45.6973C258.21 44.3745 257.532 43.085 256.661 41.935C255.81 40.7784 254.766 39.768 253.537 39.0701C252.32 38.3588 250.911 37.9799 249.502 37.9068C248.099 37.8138 246.697 38.2059 245.487 38.9438C244.271 39.6816 243.227 40.7252 242.363 41.8951C241.911 42.4734 241.525 43.0916 241.146 43.7298C240.787 44.3679 240.442 45.026 240.123 45.6973V45.704Z" fill="#263238"/>
<path d="M252.653 55.2627C252.752 57.0774 252.653 58.8987 252.613 60.7134C252.553 62.5281 252.5 64.3361 252.5 66.1441C252.506 67.9522 252.553 69.7535 252.732 71.5416C252.905 73.3297 253.191 75.1045 253.703 76.8062C254.201 78.5079 254.939 80.1431 256.023 81.5257C257.113 82.8817 258.502 84.0716 260.011 84.9756C261.533 85.8796 263.248 86.4646 265.03 86.5842C265.92 86.6507 266.818 86.6108 267.702 86.438C268.141 86.3582 268.579 86.2452 269.005 86.099C269.43 85.9527 269.856 85.7932 270.228 85.5273C269.517 86.099 268.626 86.418 267.748 86.6507C266.858 86.8833 265.94 86.9897 265.01 86.9897C264.086 86.9764 263.162 86.8368 262.264 86.5975C261.367 86.3516 260.503 85.986 259.692 85.5406C258.874 85.0952 258.103 84.5701 257.392 83.9785L256.867 83.5265L256.362 83.0479C256.023 82.7288 255.704 82.3765 255.411 82.0109C254.228 80.5419 253.45 78.807 252.912 77.0389C251.882 73.4693 251.742 69.7602 251.855 66.1308C251.915 64.3095 252.054 62.4948 252.214 60.6868C252.387 58.8788 252.573 57.0774 252.659 55.2627H252.653Z" fill="#263238"/>
<path d="M239.259 46.894C239.152 46.0498 239.664 44.8998 240.196 44.6937C240.728 44.4877 244.968 45.8503 245.414 46.8607C245.859 47.8711 244.138 48.9679 244.138 48.9679L239.259 46.894Z" fill="#28BFB2"/>
<path d="M244.337 76.8323C241.725 80.5614 222.827 95.9828 212.53 96.5545C207.884 96.8137 189.677 94.8329 185.622 93.1644C180.644 91.1105 190.482 78.7866 193.606 79.3117C197.508 79.9631 211.32 81.4322 214.066 81.5053C218.479 81.6249 232 74.1934 241.133 72.259C245.833 71.2686 246.351 73.9607 244.337 76.8323Z" fill="#EB9481"/>
<path d="M244.131 77.544C241.246 82.5759 231.063 91.1973 231.063 91.1973L229.328 88L223.578 77.4243C223.578 77.4243 233.23 73.5756 239.631 71.7078C240.495 71.4552 241.259 71.2824 241.931 71.2026C246.065 70.6708 246.617 73.2167 244.131 77.544Z" fill="#DBDBDB"/>
<path d="M244.131 77.5375C241.246 82.5628 231.063 91.1974 231.063 91.1974L229.321 87.9935L228.138 85.8132L223.578 77.4245C223.578 77.4245 233.236 73.5758 239.637 71.7079C240.502 71.462 241.266 71.2825 241.937 71.2027C242.024 71.1961 242.104 71.1828 242.183 71.1828C246.098 70.784 246.57 73.3099 244.131 77.5441V77.5375Z" fill="#DBDBDB"/>
<path d="M232.093 74.8184C232.219 75.2837 232.252 75.749 232.259 76.2143C232.259 76.6796 232.226 77.1449 232.093 77.6102C231.96 77.1449 231.933 76.6796 231.927 76.2143C231.927 75.749 231.967 75.2837 232.093 74.8184Z" fill="white"/>
<path d="M230.757 80.4621C230.291 80.5884 229.826 80.6216 229.361 80.6283C228.896 80.6283 228.43 80.595 227.965 80.4621C228.43 80.3291 228.896 80.3025 229.361 80.2959C229.826 80.2959 230.291 80.3358 230.757 80.4621Z" fill="white"/>
<path d="M244.869 72.6584C244.403 72.7847 243.938 72.8179 243.473 72.8245C243.008 72.8245 242.542 72.7913 242.077 72.6584C242.542 72.5254 243.008 72.4988 243.473 72.4922C243.938 72.4988 244.403 72.5321 244.869 72.6584Z" fill="white"/>
<path d="M237.178 78.3281C237.597 78.5674 237.949 78.8732 238.281 79.1989C238.607 79.5313 238.913 79.8836 239.152 80.3023C238.733 80.063 238.381 79.7573 238.049 79.4316C237.723 79.0992 237.417 78.7469 237.178 78.3281Z" fill="white"/>
<path d="M231.814 84.9824C232.232 85.2217 232.585 85.5275 232.917 85.8532C233.243 86.1856 233.549 86.5379 233.788 86.9566C233.369 86.7173 233.017 86.4116 232.684 86.0859C232.359 85.7535 232.053 85.4012 231.814 84.9824Z" fill="white"/>
<path d="M232.837 88.8444C231.867 86.8968 227.619 79.0531 226.582 77.4179C226.509 77.3049 226.423 77.3182 226.483 77.4445C229.241 83.3538 231.714 87.0098 232.758 88.8776C232.784 88.9242 232.857 88.8909 232.837 88.8444Z" fill="#263238"/>
<path d="M244.131 77.5373C241.246 82.5626 231.063 91.1973 231.063 91.1973L229.321 87.9933L228.138 85.813C233.662 80.3624 240.322 73.6553 242.183 71.1759C246.098 70.7771 246.57 73.303 244.131 77.5373Z" fill="#A6A6A6"/>
<path d="M234.712 100.716L236.221 117.327C236.221 117.327 238.275 117.294 242.29 116.723C245.939 116.197 251.204 115.234 258.024 113.445C263.162 112.096 269.184 110.281 276.064 107.835C276.064 107.835 260.496 79.7443 249.748 71.9937C249.502 71.8142 249.256 71.648 249.017 71.4951C248.97 71.4552 248.924 71.4286 248.877 71.4021C243.991 68.3111 239.604 70.724 237.118 74.1872C236.507 75.0447 230.524 88.6515 230.817 93.2048C231.089 97.2197 234.712 100.723 234.712 100.723V100.716Z" fill="#DBDBDB"/>
<path d="M243.353 82.9287C243.48 83.394 243.513 83.8593 243.519 84.3246C243.519 84.7899 243.486 85.2552 243.353 85.7205C243.22 85.2552 243.194 84.7899 243.187 84.3246C243.187 83.8593 243.227 83.394 243.353 82.9287Z" fill="white"/>
<path d="M247.142 98.9346C247.268 99.3999 247.302 99.8652 247.308 100.33C247.308 100.796 247.275 101.261 247.142 101.726C247.009 101.261 246.983 100.796 246.976 100.33C246.976 99.8652 247.016 99.3999 247.142 98.9346Z" fill="white"/>
<path d="M258.761 89.0303C258.888 89.4956 258.921 89.9609 258.928 90.4262C258.928 90.8915 258.894 91.3568 258.761 91.8221C258.628 91.3568 258.602 90.8915 258.595 90.4262C258.602 89.9609 258.635 89.4956 258.761 89.0303Z" fill="white"/>
<path d="M237.477 96.8145C237.603 97.2798 237.637 97.7451 237.643 98.2104C237.643 98.6757 237.61 99.141 237.477 99.6063C237.344 99.141 237.318 98.6757 237.311 98.2104C237.311 97.7451 237.351 97.2798 237.477 96.8145Z" fill="white"/>
<path d="M252.108 86.1252C251.642 86.2515 251.177 86.2847 250.712 86.2913C250.246 86.2913 249.781 86.2581 249.316 86.1252C249.781 85.9922 250.246 85.9656 250.712 85.959C251.177 85.959 251.642 85.9989 252.108 86.1252Z" fill="white"/>
<path d="M261.999 98.5226C261.533 98.6489 261.068 98.6822 260.603 98.6888C260.137 98.6888 259.672 98.6556 259.207 98.5226C259.672 98.3897 260.137 98.3631 260.603 98.3564C261.068 98.3631 261.533 98.3963 261.999 98.5226Z" fill="white"/>
<path d="M246.963 108.347C246.497 108.473 246.032 108.506 245.567 108.513C245.101 108.513 244.636 108.48 244.171 108.347C244.636 108.214 245.101 108.187 245.567 108.181C246.032 108.187 246.497 108.221 246.963 108.347Z" fill="white"/>
<path d="M264.471 106.452C264.006 106.579 263.541 106.612 263.075 106.618C262.61 106.618 262.145 106.585 261.68 106.452C262.145 106.319 262.61 106.293 263.075 106.286C263.541 106.293 264.006 106.326 264.471 106.452Z" fill="white"/>
<path d="M244.869 72.6584C244.403 72.7847 243.938 72.8179 243.473 72.8245C243.008 72.8245 242.542 72.7913 242.077 72.6584C242.542 72.5254 243.008 72.4988 243.473 72.4922C243.938 72.4988 244.403 72.5321 244.869 72.6584Z" fill="white"/>
<path d="M249.728 74.4668C250.147 74.7061 250.499 75.0119 250.831 75.3376C251.157 75.6699 251.463 76.0222 251.702 76.441C251.283 76.2017 250.931 75.8959 250.599 75.5702C250.273 75.2379 249.967 74.8856 249.728 74.4668Z" fill="white"/>
<path d="M264.252 90.0137C264.671 90.253 265.023 90.5587 265.355 90.8845C265.681 91.2168 265.987 91.5691 266.226 91.9879C265.807 91.7486 265.455 91.4428 265.123 91.1171C264.797 90.7847 264.491 90.4324 264.252 90.0137Z" fill="white"/>
<path d="M241.02 91.6758C241.439 91.9151 241.791 92.2208 242.123 92.5466C242.449 92.8789 242.755 93.2312 242.994 93.65C242.576 93.4107 242.223 93.1049 241.891 92.7792C241.565 92.4469 241.259 92.0946 241.02 91.6758Z" fill="white"/>
<path d="M254.348 102.91C254.766 103.149 255.119 103.455 255.451 103.781C255.777 104.113 256.083 104.466 256.322 104.884C255.903 104.645 255.551 104.339 255.218 104.014C254.893 103.681 254.587 103.329 254.348 102.91Z" fill="white"/>
<path d="M237.178 78.3281C237.597 78.5674 237.949 78.8732 238.281 79.1989C238.607 79.5313 238.913 79.8836 239.152 80.3023C238.733 80.063 238.381 79.7573 238.049 79.4316C237.723 79.0992 237.417 78.7469 237.178 78.3281Z" fill="white"/>
<path d="M235.995 89.0309C236.234 88.6121 236.54 88.2598 236.866 87.9274C237.198 87.6017 237.55 87.2959 237.969 87.0566C237.73 87.4754 237.424 87.8277 237.098 88.1601C236.766 88.4858 236.414 88.7916 235.995 89.0309Z" fill="white"/>
<path d="M267.536 100.909C267.775 100.49 268.081 100.138 268.406 99.8053C268.739 99.4796 269.091 99.1739 269.51 98.9346C269.271 99.3533 268.965 99.7056 268.639 100.038C268.307 100.364 267.954 100.669 267.536 100.909Z" fill="white"/>
<path d="M237.716 105.669C237.956 105.25 238.261 104.897 238.587 104.565C238.92 104.239 239.272 103.934 239.691 103.694C239.451 104.113 239.146 104.465 238.82 104.798C238.487 105.123 238.135 105.429 237.716 105.669Z" fill="white"/>
<path d="M255.518 82.7555C255.757 82.3367 256.063 81.9844 256.388 81.652C256.721 81.3263 257.073 81.0205 257.492 80.7812C257.252 81.2 256.947 81.5523 256.621 81.8847C256.289 82.2104 255.936 82.5162 255.518 82.7555Z" fill="white"/>
<path d="M251.104 112.601C251.343 112.182 251.649 111.83 251.975 111.498C252.307 111.172 252.659 110.866 253.078 110.627C252.839 111.046 252.533 111.398 252.207 111.73C251.875 112.056 251.523 112.362 251.104 112.601Z" fill="white"/>
<path d="M251.117 94.6344C251.356 94.2156 251.662 93.8633 251.988 93.5309C252.32 93.2052 252.673 92.8995 253.091 92.6602C252.852 93.0789 252.546 93.4312 252.221 93.7636C251.888 94.0893 251.536 94.3951 251.117 94.6344Z" fill="white"/>
<path d="M245.826 71.1232C245.733 71.768 243.087 76.102 240.196 76.215C239.259 76.2482 238.833 71.1299 238.833 71.1299L238.713 70.7576L237.072 65.5662L242.948 61.0395L243.799 60.4346C243.799 60.4346 244.151 61.8837 244.576 63.6983C244.596 63.7848 244.616 63.8645 244.636 63.9576C244.663 64.0573 244.689 64.157 244.709 64.2501C244.776 64.5226 244.842 64.7951 244.902 65.0743C244.949 65.287 244.995 65.4864 245.035 65.7124C245.081 65.9318 245.121 66.1511 245.175 66.3705C245.593 68.5641 245.846 70.8573 245.813 71.1299L245.826 71.1232Z" fill="#EB9481"/>
<path d="M244.59 63.6917C243.433 68.0389 240.216 70.0464 238.72 70.7576L237.078 65.5662L242.954 61.0395L243.805 60.4346C243.805 60.4346 244.158 61.8837 244.583 63.6983L244.59 63.6917Z" fill="#263238"/>
<path d="M229.793 57.7225C229.746 67.2811 235.47 68.3846 237.53 68.3978C239.398 68.4045 245.773 68.1918 246.81 58.6863C247.84 49.1808 243.413 46.1431 239.132 45.8971C234.851 45.6578 229.84 48.1638 229.793 57.7225Z" fill="#EB9481"/>
<path d="M246.285 59.3577C244.723 59.5173 244.277 56.2402 244.277 56.2402C244.277 56.2402 241.093 56.3266 239.93 51.7733C239.93 51.7733 240.05 53.907 241.432 55.5289C241.432 55.5289 235.802 55.0703 233.323 50.4306C233.323 50.4306 234.326 52.8036 235.23 53.6279C235.23 53.6279 232.857 53.0296 231.661 51.1418C231.661 51.1418 230.743 53.8804 230.006 54.6449C230.006 54.6449 228.916 49.8257 230.916 47.3197C235.131 42.0418 242.05 46.6284 242.05 46.6284C242.05 46.6284 245.919 47.2133 247.302 50.1115C249.435 54.585 246.285 59.3511 246.285 59.3511V59.3577Z" fill="#263238"/>
<path d="M245.281 59.4109C245.281 59.4109 247.116 56.2668 248.525 56.8983C249.934 57.5297 248.724 61.9701 247.189 62.688C245.653 63.4059 244.962 61.9967 244.962 61.9967L245.281 59.4109Z" fill="#EB9481"/>
<path d="M248.152 58.1676C248.152 58.1676 248.186 58.2008 248.166 58.2075C247.089 58.7459 246.59 59.8294 246.271 60.9262C246.57 60.4875 247.002 60.2282 247.581 60.5739C247.614 60.5938 247.581 60.6403 247.554 60.6337C247.089 60.5739 246.77 60.6802 246.491 61.0658C246.291 61.3383 246.172 61.6773 246.039 61.9897C245.992 62.0961 245.813 62.0562 245.839 61.9365C245.839 61.9299 245.839 61.9166 245.846 61.91C245.7 60.4941 246.637 58.4268 248.146 58.1543L248.152 58.1676Z" fill="#263238"/>
<path d="M230.989 55.8151C231.215 55.7819 231.415 55.7087 231.634 55.6556C231.88 55.5891 232.086 55.5625 232.259 55.3631C232.352 55.2567 232.339 55.044 232.239 54.9443C232.02 54.705 231.694 54.7117 231.395 54.7781C231.069 54.8512 230.837 54.9908 230.63 55.2501C230.431 55.5027 230.69 55.8616 230.989 55.8151Z" fill="#263238"/>
<path d="M237.225 56.5598C236.998 56.5398 236.792 56.4866 236.566 56.4468C236.314 56.4002 236.108 56.3936 235.922 56.2075C235.822 56.1078 235.822 55.895 235.908 55.7887C236.114 55.5361 236.433 55.5162 236.739 55.556C237.072 55.6026 237.311 55.7222 237.537 55.9682C237.756 56.2075 237.524 56.5797 237.225 56.5598Z" fill="#263238"/>
<path d="M235.955 58.5137C235.955 58.5137 236.008 58.5469 236.008 58.5735C235.995 59.2316 236.094 59.9827 236.693 60.1888C236.713 60.1888 236.713 60.2286 236.693 60.2286C235.968 60.1356 235.849 59.1385 235.962 58.5203L235.955 58.5137Z" fill="#263238"/>
<path d="M236.527 57.8159C237.577 57.7162 237.696 59.83 236.719 59.9231C235.762 60.0095 235.642 57.8957 236.527 57.8159Z" fill="#263238"/>
<path d="M236.945 57.909C237.138 58.0153 237.331 58.2214 237.55 58.228C237.809 58.2413 237.989 58.0087 238.148 57.7827C238.162 57.7627 238.182 57.7827 238.188 57.8026C238.215 58.2081 238.082 58.6335 237.65 58.7133C237.258 58.793 236.952 58.4474 236.832 58.0486C236.812 57.9754 236.866 57.8624 236.945 57.9023V57.909Z" fill="#263238"/>
<path d="M232.312 58.54C232.312 58.54 232.266 58.5733 232.266 58.5999C232.326 59.2513 232.286 60.0091 231.707 60.2683C231.687 60.275 231.694 60.3082 231.714 60.3015C232.432 60.1553 232.472 59.1449 232.312 58.54Z" fill="#263238"/>
<path d="M231.681 57.8956C230.624 57.8823 230.67 59.9961 231.654 60.0094C232.618 60.0227 232.571 57.9089 231.681 57.8956Z" fill="#263238"/>
<path d="M231.249 58.042C231.083 58.155 230.923 58.3677 230.724 58.381C230.491 58.4009 230.318 58.1749 230.165 57.9622C230.152 57.9423 230.132 57.9622 230.132 57.9888C230.132 58.3943 230.272 58.813 230.664 58.8795C231.023 58.9393 231.269 58.587 231.362 58.1816C231.375 58.1084 231.315 57.9954 231.249 58.042Z" fill="#263238"/>
<path d="M236.786 63.8578C236.646 64.0239 236.513 64.2499 236.274 64.2965C236.048 64.3363 235.775 64.2632 235.556 64.2034C235.536 64.2034 235.516 64.2233 235.529 64.2366C235.722 64.4693 236.094 64.5889 236.394 64.5092C236.686 64.4294 236.806 64.1569 236.846 63.8777C236.846 63.8378 236.799 63.8312 236.779 63.8578H236.786Z" fill="#263238"/>
<path d="M233.409 61.4389C233.409 61.4389 233.316 62.4227 233.336 62.8814C233.336 62.9279 234.645 62.7551 236.021 63.1539C236.227 63.2137 236.221 63.0409 235.982 62.9146C235.516 62.662 234.918 62.4094 233.715 62.4626C233.675 62.3363 233.888 60.9471 233.815 60.9471C233.562 60.9338 233.07 61.1265 232.778 61.2262C232.91 59.1723 233.376 57.1515 233.476 55.1042C233.476 55.0311 233.369 55.0111 233.356 55.0776C232.718 57.1582 232.512 59.5179 232.319 61.6384C232.292 61.9043 233.23 61.5121 233.409 61.4257V61.4389Z" fill="#263238"/>
<path d="M234.399 62.8813C234.399 62.8813 235.044 63.7122 235.742 63.7853C236.546 63.8651 236.606 63.1472 235.702 62.7816C235.23 62.5888 234.399 62.8813 234.399 62.8813Z" fill="#263238"/>
<path d="M235.742 63.7856C235.443 63.759 235.157 63.5928 234.918 63.4001C235.071 63.1408 235.436 62.8484 236.314 63.2671C236.453 63.5729 236.247 63.8388 235.736 63.7856H235.742Z" fill="#FF99BA"/>
<path d="M244.423 69.9734C245.593 69.9668 247.561 70.2659 250.213 72.2867C250.213 72.2867 244.676 76.7403 239.511 76.7469C237.67 76.7469 237.118 74.1745 237.118 74.1745C237.118 74.1745 239.598 70.0067 244.423 69.9668V69.9734Z" fill="#EB9481"/>
<path d="M332 261.359H310.284C294.503 261.359 284.858 250.451 283.117 230.649C282.259 220.891 281.734 209.072 281.182 196.555C279.481 158.121 277.147 105.482 262.185 105.482H244.988V101.494H262.185C280.956 101.494 283.097 149.733 285.164 196.383C285.716 208.853 286.241 220.632 287.085 230.303C288.168 242.654 293.074 257.37 310.277 257.37H331.993V261.359H332Z" fill="#28BFB2"/>
<path opacity="0.2" d="M257.618 101.487L256.767 105.476H244.988V101.487H257.618Z" fill="black"/>
<path d="M212.577 79.6182H205.624V128.202H212.577V79.6182Z" fill="#28BFB2"/>
<path d="M205.63 83.208H179.195V124.115H205.63V83.208Z" fill="#28BFB2"/>
<path opacity="0.2" d="M205.624 83.208V124.115H199.056L196.112 83.208H205.624Z" fill="black"/>
<path d="M158.907 90.5459H179.188V96.6613H158.907C157.458 96.6613 156.288 95.4847 156.288 94.0423V93.1715C156.288 91.7224 157.465 90.5525 158.907 90.5525V90.5459Z" fill="#DBDBDB"/>
<path d="M179.188 90.5527H172.069V96.6615H179.188V90.5527Z" fill="#A6A6A6"/>
<path d="M158.907 110.654H179.188V116.77H158.907C157.458 116.77 156.288 115.593 156.288 114.151V113.28C156.288 111.831 157.465 110.661 158.907 110.661V110.654Z" fill="#DBDBDB"/>
<path d="M179.188 110.661H172.069V116.77H179.188V110.661Z" fill="#A6A6A6"/>
<path d="M253.663 99.7588H233.01V107.915H253.663V99.7588Z" fill="#28BFB2"/>
<path d="M253.663 99.7588H233.01V107.915H253.663V99.7588Z" fill="#28BFB2"/>
<path opacity="0.2" d="M240.262 99.7588L239.584 107.915H233.01V99.7588H240.262Z" fill="black"/>
<path d="M212.577 84.7432H228.922C231.176 84.7432 233.01 86.5778 233.01 88.8312V118.484C233.01 120.738 231.176 122.572 228.922 122.572H212.577V84.7432Z" fill="#28BFB2"/>
<path opacity="0.2" d="M221.271 84.75L218.333 122.572H212.577V84.75H221.271Z" fill="black"/>
<g opacity="0.2">
<path d="M219.749 92.3945H218.446V114.928H219.749V92.3945Z" fill="black"/>
<path d="M223.445 92.3945H222.142V114.928H223.445V92.3945Z" fill="black"/>
<path d="M227.141 92.3945H225.838V114.928H227.141V92.3945Z" fill="black"/>
</g>
<path d="M251.749 76.9398C254.035 83.3543 250.765 106.872 246.89 111.831C241.126 119.203 229.76 125.996 225.406 128.116C223.511 129.04 214.99 115.427 216.851 114.151C220.833 111.419 233.542 104.898 234.619 103.602C235.696 102.305 241.492 89.8552 243.812 82.8558C246.923 73.4633 250.592 73.696 251.749 76.9398Z" fill="#EB9481"/>
<path d="M225.393 128.149C219.357 131.593 207.365 131.087 205.724 130.582C204.328 130.164 203.61 129.931 203.61 129.931C201.09 129.226 200.412 127.83 200.412 127.83C200.412 127.83 197.262 127.87 196.923 125.969C196.537 123.835 201.037 124.201 203.636 122.885C209.586 119.867 217.203 113.918 218.832 112.881L225.393 128.149Z" fill="#EB9481"/>
<path d="M212.098 124.115C210.33 124.966 208.615 125.85 206.741 126.461C204.68 127.126 202.593 127.425 200.466 127.784C200.399 127.797 200.406 127.89 200.472 127.89C204.414 127.857 208.894 126.448 212.178 124.274C212.258 124.221 212.185 124.081 212.098 124.121V124.115Z" fill="#263238"/>
<path d="M214.438 127.439C212.67 128.17 209.552 129.439 203.61 129.871C203.59 129.871 203.59 129.905 203.61 129.905C207.505 130.137 211.068 129.393 214.504 127.618C214.611 127.565 214.551 127.392 214.438 127.439Z" fill="#263238"/>
<path d="M210.583 118.804C211.201 118.106 210.842 117.773 209.207 118.073C207.551 118.372 201.356 120.931 200.645 118.691C199.927 116.437 208.761 112.954 211.52 112.668C214.278 112.376 218.991 112.888 218.991 112.888C217.409 113.911 213.66 116.756 210.583 118.804Z" fill="#EB9481"/>
<path d="M245.334 78.5481C249.356 70.0862 253.025 72.3263 253.377 80.6951C253.703 88.5188 252.606 98.0974 252.606 98.0974L238.029 93.9163C238.029 93.9163 242.762 83.9589 245.341 78.5481H245.334Z" fill="#DBDBDB"/>
<path d="M248.963 73.6221C249.382 73.8614 249.735 74.1671 250.067 74.4928C250.393 74.8252 250.698 75.1775 250.938 75.5963C250.519 75.357 250.167 75.0512 249.834 74.7255C249.509 74.3931 249.203 74.0408 248.963 73.6221Z" fill="white"/>
<path d="M243.353 82.9277C243.48 83.393 243.513 83.8583 243.519 84.3236C243.519 84.7889 243.486 85.2542 243.353 85.7195C243.22 85.2542 243.194 84.7889 243.187 84.3236C243.187 83.8583 243.227 83.393 243.353 82.9277Z" fill="white"/>
<path d="M252.108 86.1252C251.642 86.2515 251.177 86.2847 250.712 86.2913C250.246 86.2913 249.781 86.2581 249.316 86.1252C249.781 85.9922 250.246 85.9656 250.712 85.959C251.177 85.959 251.642 85.9989 252.108 86.1252Z" fill="white"/>
<path d="M241.02 91.6758C241.439 91.9151 241.791 92.2208 242.123 92.5466C242.449 92.8789 242.755 93.2312 242.994 93.65C242.575 93.4107 242.223 93.1049 241.891 92.7792C241.565 92.4469 241.259 92.0946 241.02 91.6758Z" fill="white"/>
<path d="M251.117 94.6334C251.356 94.2146 251.662 93.8623 251.988 93.53C252.32 93.2043 252.673 92.8985 253.091 92.6592C252.852 93.078 252.546 93.4303 252.221 93.7626C251.888 94.0883 251.536 94.3941 251.117 94.6334Z" fill="white"/>
<path d="M243.938 81.1268C243.393 82.2369 242.821 83.327 242.25 84.4238C242.349 83.8987 242.429 83.3802 242.489 82.8484C242.489 82.8218 242.456 82.8218 242.449 82.8484C242.369 83.2606 242.27 83.6727 242.19 84.0848C242.157 84.2842 242.117 84.4836 242.077 84.6831C242.07 84.7229 242.057 84.7695 242.05 84.8094C241.605 85.6668 241.166 86.5177 240.748 87.3885C240.249 88.4254 239.77 89.469 239.292 90.5126C238.8 91.5895 238.368 92.8325 237.829 93.8894C237.783 93.9825 239.119 94.2683 239.252 94.3148C239.385 94.3613 239.445 94.2284 239.312 94.2151C239.185 94.2018 238.095 93.7631 238.075 93.7498C238.554 92.6996 239.146 91.6958 239.657 90.6655C240.163 89.6352 240.674 88.6049 241.16 87.5613C242.143 85.4475 243.008 83.2739 243.985 81.1468C243.998 81.1202 243.951 81.1002 243.938 81.1268Z" fill="#263238"/>
<path d="M253.982 86.1655C253.849 86.5975 253.696 87.0296 253.583 87.4749C253.537 87.6544 253.497 87.8405 253.45 88.02C253.503 86.5111 253.55 85.0022 253.597 83.4866C253.597 83.4667 253.57 83.4667 253.57 83.4866C253.364 85.9527 253.151 88.4255 252.992 90.8982C252.839 93.258 252.579 95.6576 252.666 98.024C252.466 97.9974 251.35 97.7448 251.33 97.818C251.31 97.8911 252.825 98.3098 252.832 98.25C253.204 95.8637 253.231 93.2181 253.344 90.8052C253.377 90.1272 253.397 89.4492 253.424 88.7645C253.503 88.3457 253.623 87.9336 253.736 87.5148C253.856 87.0761 253.936 86.6241 254.029 86.1787C254.029 86.1522 253.989 86.1389 253.982 86.1655Z" fill="#263238"/>
<path d="M252.001 95.8905C249.947 95.1593 241.445 92.4738 239.564 92.0152C239.431 91.982 239.378 92.0551 239.511 92.1083C245.6 94.4414 249.914 95.3521 251.968 95.9703C252.021 95.9836 252.054 95.9104 252.001 95.8905Z" fill="#263238"/>
<path d="M180.537 93.6032C182.551 94.2147 182.119 91.496 182.119 91.496C182.119 91.496 183.682 95.2716 186.001 95.0988C188.235 94.9326 187.603 91.6555 187.563 91.4229C187.65 91.6223 189.172 95.0522 191.485 94.6401C193.892 94.2147 192.688 91.0373 192.615 90.8313C192.755 90.9908 194.623 93.1179 196.311 92.4067C199.209 91.1836 194.583 85.6265 194.922 83.1006L198.997 83.2203C199.13 83.2003 199.269 83.187 199.395 83.1604L199.555 81.0799C198.392 80.6677 197.076 79.9033 195.793 79.1854C194.257 78.3213 192.775 77.5369 191.671 77.517C189.857 77.4837 189.378 79.0392 189.378 79.0392C189.378 79.0392 188.182 77.1514 186.354 77.4173C185.416 77.5569 184.798 79.1854 184.798 79.1854C184.798 79.1854 183.781 77.7164 182.166 78.0554C180.876 78.3213 180.458 79.91 180.458 79.91C180.458 79.91 178.822 78.9528 177.593 79.6507C175.107 81.0533 176.237 92.2937 180.544 93.6098L180.537 93.6032Z" fill="#EB9481"/>
<path d="M195.447 82.8881L198.997 83.2138C199.13 83.1939 199.269 83.1806 199.395 83.154C203.882 82.3431 206.667 77.2114 203.424 76.8458C200.951 76.56 198.285 79.8371 195.793 79.179L195.447 82.8948V82.8881Z" fill="#EB9481"/>
<path d="M180.345 80.1428C180.345 80.1029 180.291 80.0963 180.285 80.1428C179.753 83.925 180.331 88.2524 182.133 91.6491C182.193 91.7621 182.399 91.7155 182.359 91.576C181.169 87.7206 180.424 84.2042 180.345 80.1495V80.1428Z" fill="#263238"/>
<path d="M184.758 79.1257C184.758 79.0792 184.685 79.0792 184.679 79.1257C184.153 83.0276 184.938 87.88 187.47 91.5493C187.557 91.6756 187.763 91.7022 187.67 91.5493C186.168 88.9768 184.805 82.7684 184.752 79.1191L184.758 79.1257Z" fill="#263238"/>
<path d="M192.881 91.0243C190.581 87.4082 189.677 83.4199 189.332 79.1923C189.332 79.1391 189.252 79.1524 189.239 79.1923C188.84 81.3061 189.345 83.9783 189.91 86.0256C190.448 87.9865 191.332 89.6483 192.755 91.0974C192.808 91.1506 192.928 91.0974 192.881 91.0176V91.0243Z" fill="#263238"/>
<path d="M136.732 242.561C135.35 243.019 95.9587 242.906 94.4564 241.949C93.8914 241.597 93.5723 235.847 93.3862 228.907C93.3463 227.405 93.3131 225.863 93.2865 224.281C93.2533 222.42 93.2333 220.532 93.22 218.697C93.1735 210.468 93.2865 203.223 93.2865 203.223H118.931L118.918 218.697V224.281L118.778 228.907C118.778 228.907 133.841 235.701 135.37 236.924C136.892 238.14 138.102 242.109 136.726 242.561H136.732Z" fill="#AD6359"/>
<path d="M136.732 242.561C135.35 243.019 95.9587 242.906 94.4564 241.949C93.8914 241.597 93.5723 235.847 93.3862 228.907C93.3463 227.405 93.3131 225.863 93.2865 224.281C93.2533 222.42 93.2333 220.532 93.22 218.697H118.925V224.281L118.785 228.907C118.785 228.907 133.848 235.701 135.376 236.924C136.899 238.14 138.108 242.109 136.732 242.561Z" fill="white"/>
<path d="M136.852 242.62C135.955 242.912 119.171 242.972 106.953 242.72C104.128 242.66 101.542 242.58 99.4551 242.494C96.5769 242.361 94.6492 242.201 94.3368 242.008C93.6455 241.563 93.3131 233.134 93.1536 224.247H118.925L118.792 228.893C118.792 228.893 133.941 235.72 135.483 236.95C137.012 238.18 138.228 242.155 136.845 242.62H136.852Z" fill="#28BFB2"/>
<path d="M136.287 241.038C129.647 240.859 102.845 240.746 96.2711 241.071C96.2179 241.071 96.2179 241.111 96.2711 241.111C102.852 241.437 129.647 241.324 136.287 241.145C136.427 241.145 136.427 241.038 136.287 241.038Z" fill="#263238"/>
<path d="M119.742 227.418C117.13 226.919 113.933 227.311 111.932 229.173C111.852 229.246 111.958 229.352 112.045 229.326C114.624 228.521 117.037 228.003 119.736 227.75C119.928 227.73 119.935 227.458 119.749 227.418H119.742Z" fill="#263238"/>
<path d="M121.63 228.561C119.018 228.063 115.82 228.455 113.82 230.316C113.74 230.389 113.846 230.496 113.933 230.469C116.512 229.665 118.925 229.146 121.623 228.894C121.816 228.874 121.823 228.601 121.637 228.561H121.63Z" fill="#263238"/>
<path d="M123.511 229.705C120.899 229.206 117.702 229.599 115.701 231.46C115.621 231.533 115.727 231.639 115.814 231.613C118.393 230.808 120.806 230.29 123.505 230.037C123.697 230.017 123.704 229.745 123.518 229.705H123.511Z" fill="#263238"/>
<path d="M125.392 230.847C122.78 230.349 119.583 230.741 117.582 232.602C117.502 232.675 117.609 232.782 117.695 232.755C120.274 231.951 122.687 231.432 125.386 231.18C125.579 231.16 125.585 230.887 125.399 230.847H125.392Z" fill="#263238"/>
<path d="M124.588 221.389C123.564 219.973 121.65 220.605 120.56 221.515C118.792 222.998 117.236 225.311 116.518 227.491C116.498 227.544 116.538 227.578 116.578 227.584C116.585 227.784 116.764 227.996 116.99 227.91C119.151 227.119 121.557 226.534 123.412 225.105C124.495 224.267 125.559 222.725 124.595 221.389H124.588ZM120.015 226.042C118.965 226.461 117.894 226.82 116.857 227.272C117.648 226.109 118.386 224.919 119.297 223.835C119.729 223.317 120.188 222.798 120.686 222.34C121.464 221.635 124.548 220.139 124.076 223.004C123.817 224.586 121.271 225.544 120.015 226.036V226.042Z" fill="#263238"/>
<path d="M109.878 226.794C112.032 227.718 114.504 227.678 116.798 227.91C117.037 227.937 117.157 227.684 117.11 227.492C117.15 227.472 117.176 227.432 117.143 227.385C115.907 225.451 113.82 223.596 111.739 222.606C110.45 221.994 108.442 221.862 107.804 223.49C107.199 225.032 108.622 226.255 109.878 226.794ZM108.701 224.926C107.531 222.267 110.888 222.945 111.819 223.437C112.417 223.749 112.989 224.142 113.534 224.534C114.684 225.358 115.694 226.322 116.751 227.252C115.634 227.073 114.511 226.986 113.388 226.847C112.051 226.681 109.339 226.388 108.695 224.926H108.701Z" fill="#263238"/>
<path d="M122.581 222.433L90.7938 223.004C90.7938 223.004 86.4665 194.88 83.6149 177.378C82.538 170.804 81.6872 165.732 81.3415 164.197C80.5173 160.548 64.4045 102.624 64.4045 102.624L87.5168 102.591H95.407C95.407 102.591 94.9018 112.262 95.2009 113.286C99.3221 127.305 107.744 152.165 110.376 160.827C114.411 174.154 122.574 222.433 122.574 222.433H122.581Z" fill="#A6A6A6"/>
<path d="M119.689 217.561C115.123 217.528 98.9499 217.348 92.8678 217.913C92.8212 217.913 92.8212 217.993 92.8678 218C94.9616 218.299 115.123 217.834 119.689 217.687C119.776 217.687 119.776 217.561 119.689 217.561Z" fill="#263238"/>
<path d="M91.3123 193.591C90.2155 186.319 88.9924 179.06 87.6364 171.828C86.965 168.272 86.2405 164.716 85.3165 161.219C84.3793 157.676 83.2027 154.2 82.0063 150.737C79.6332 143.85 77.3466 136.93 75.2261 129.964C73.1057 122.998 71.1049 115.998 69.2503 108.952C69.0177 108.062 68.7784 107.171 68.5258 106.28C68.5058 106.207 68.3995 106.24 68.4128 106.313C69.1373 109.863 70.0679 113.379 70.9719 116.882C71.8759 120.392 72.8331 123.889 73.8369 127.372C75.8576 134.371 78.0379 141.318 80.4043 148.204C81.5808 151.634 82.8039 155.057 83.8475 158.534C84.8911 162.004 85.7087 165.533 86.4266 169.083C87.8957 176.282 89.1387 183.534 90.3019 190.792C91.4718 198.084 92.449 205.403 93.4195 212.721C93.5457 213.652 93.6654 214.576 93.785 215.507C93.8183 215.766 94.2304 215.766 94.2038 215.493C93.4195 208.168 92.4091 200.863 91.3057 193.578L91.3123 193.591Z" fill="#263238"/>
<path d="M87.5234 102.591L83.6149 177.371C82.538 170.797 81.6872 165.726 81.3415 164.19C80.5173 160.541 64.4045 102.617 64.4045 102.617L87.5168 102.584L87.5234 102.591Z" fill="#263238"/>
<path d="M97.3081 248.835C95.9255 249.294 56.5343 249.181 55.032 248.224C54.467 247.871 54.1479 242.121 53.9618 235.182C53.9219 233.679 53.8887 232.137 53.8621 230.555C53.8289 228.694 53.8089 226.806 53.7956 224.972C53.7491 216.742 53.8621 209.497 53.8621 209.497H79.5069L79.4936 224.972V230.555L79.354 235.182C79.354 235.182 94.4165 241.975 95.9454 243.198C97.4676 244.415 98.6774 248.383 97.3014 248.835H97.3081Z" fill="#AD6359"/>
<path d="M97.3081 248.835C95.9254 249.294 56.5343 249.181 55.032 248.223C54.467 247.871 54.1479 242.121 53.9618 235.182C53.9219 233.679 53.8887 232.137 53.8621 230.555C53.8289 228.694 53.8089 226.806 53.7956 224.972H79.5003V230.555L79.3607 235.182C79.3607 235.182 94.4232 241.975 95.952 243.198C97.4742 244.415 98.684 248.383 97.3081 248.835Z" fill="white"/>
<path d="M97.4277 248.894C96.5303 249.187 79.7462 249.247 67.5287 248.994C64.7036 248.934 62.1179 248.854 60.0307 248.768C57.1525 248.635 55.2248 248.476 54.9124 248.283C54.221 247.837 53.8887 239.409 53.7292 230.521H79.5003L79.3673 235.168C79.3673 235.168 94.5162 241.995 96.0584 243.224C97.5872 244.454 98.8037 248.429 97.4211 248.894H97.4277Z" fill="#28BFB2"/>
<path d="M96.8627 247.306C90.2222 247.126 63.4207 247.013 56.8467 247.339C56.7935 247.339 56.7935 247.379 56.8467 247.379C63.4274 247.705 90.2222 247.592 96.8627 247.412C97.0023 247.412 97.0023 247.306 96.8627 247.306Z" fill="#263238"/>
<path d="M80.3179 233.692C77.7055 233.194 74.5082 233.586 72.5074 235.447C72.4277 235.52 72.534 235.627 72.6204 235.6C75.1995 234.796 77.6125 234.277 80.3112 234.025C80.504 234.005 80.5106 233.732 80.3245 233.692H80.3179Z" fill="#263238"/>
<path d="M82.199 234.836C79.5867 234.337 76.3894 234.729 74.3886 236.591C74.3088 236.664 74.4152 236.77 74.5016 236.744C77.0807 235.939 79.4936 235.421 82.1924 235.168C82.3851 235.148 82.3918 234.876 82.2057 234.836H82.199Z" fill="#263238"/>
<path d="M84.0868 235.979C81.4745 235.481 78.2772 235.873 76.2764 237.734C76.1966 237.807 76.303 237.914 76.3894 237.887C78.9685 237.083 81.3814 236.564 84.0802 236.312C84.2729 236.292 84.2796 236.019 84.0935 235.979H84.0868Z" fill="#263238"/>
<path d="M85.968 237.115C83.3556 236.617 80.1583 237.009 78.1575 238.87C78.0778 238.943 78.1841 239.049 78.2705 239.023C80.8496 238.218 83.2626 237.7 85.9613 237.447C86.1541 237.427 86.1607 237.155 85.9746 237.115H85.968Z" fill="#263238"/>
<path d="M85.1637 227.664C84.14 226.248 82.2256 226.879 81.1355 227.79C79.3673 229.272 77.8119 231.585 77.094 233.766C77.074 233.819 77.1139 233.852 77.1538 233.859C77.1605 234.058 77.3399 234.271 77.5659 234.184C79.7263 233.393 82.1325 232.809 83.9871 231.379C85.0706 230.542 86.1342 229 85.1703 227.664H85.1637ZM80.5904 232.317C79.5401 232.735 78.47 233.094 77.433 233.546C78.224 232.383 78.9618 231.193 79.8725 230.11C80.3046 229.591 80.7632 229.073 81.2618 228.621C82.0395 227.916 85.1238 226.421 84.6518 229.286C84.3926 230.868 81.8467 231.825 80.5904 232.317Z" fill="#263238"/>
<path d="M70.4468 233.061C72.6005 233.985 75.0732 233.945 77.3665 234.178C77.6058 234.205 77.7255 233.952 77.6789 233.759C77.7188 233.739 77.7454 233.699 77.7122 233.653C76.4758 231.719 74.3886 229.864 72.308 228.874C71.0185 228.262 69.011 228.129 68.3729 229.758C67.768 231.3 69.1905 232.523 70.4468 233.061ZM69.2703 231.193C68.1003 228.535 71.4572 229.213 72.3878 229.705C72.986 230.017 73.5577 230.409 74.1028 230.801C75.2527 231.626 76.2631 232.589 77.32 233.52C76.2033 233.341 75.0799 233.254 73.9565 233.115C72.6204 232.948 69.9084 232.656 69.2636 231.193H69.2703Z" fill="#263238"/>
<path d="M83.1097 228.329H51.9942C51.9942 228.329 58.7478 131.898 57.6576 126.487C55.8695 117.64 57.066 107.476 61.2471 102.584H88.9193C88.9193 102.584 89.471 110.348 86.6127 114.988C86.6127 114.988 84.0203 116.629 82.7574 117.354L83.1097 228.329Z" fill="#A6A6A6"/>
<path d="M80.1916 223.303C75.8842 223.19 77.1206 223.163 72.8132 223.097C70.706 223.064 56.8467 222.871 54.8725 223.19C54.8259 223.197 54.8259 223.27 54.8725 223.276C56.84 223.615 70.6994 223.569 72.8065 223.555C77.1139 223.536 75.8775 223.496 80.1849 223.429C80.2647 223.429 80.2647 223.303 80.1849 223.303H80.1916Z" fill="#263238"/>
<path d="M88.341 113.744C85.609 115.007 83.0233 116.656 80.5638 118.351C80.4641 118.417 80.5505 118.563 80.6569 118.504C83.2891 117.048 85.9812 115.632 88.5271 114.043C88.7265 113.917 88.5537 113.644 88.341 113.744Z" fill="#263238"/>
<path d="M84.8113 113.345C84.6452 113.877 84.5255 114.429 84.4324 114.98C84.3593 115.406 84.253 115.871 84.346 116.297C84.366 116.376 84.479 116.376 84.5189 116.31C84.7648 115.924 84.8379 115.426 84.9509 114.987C85.0839 114.482 85.2235 113.977 85.3431 113.465C85.4229 113.126 84.9044 113.013 84.8047 113.339L84.8113 113.345Z" fill="#263238"/>
<path d="M84.5654 110.68C84.6385 110.215 84.7116 109.756 84.7981 109.298C84.8845 108.819 85.0041 108.347 85.0506 107.862C85.0573 107.789 85.1836 107.809 85.1703 107.888C85.0972 108.354 85.0905 108.826 85.0506 109.298C85.0108 109.77 84.9709 110.235 84.9244 110.7C84.8379 111.571 84.6851 112.448 84.5122 113.312C84.9642 113.206 85.4229 113.08 85.7818 112.787C86.174 112.468 86.3402 111.93 86.4599 111.458C86.5928 110.926 86.7124 110.394 86.852 109.869C87.0116 109.284 87.2043 108.706 87.2575 108.101C87.2642 108.028 87.3838 108.048 87.3772 108.128C87.2243 109.384 87.078 110.64 86.6726 111.857C86.513 112.335 86.4067 112.821 85.9746 113.086C85.5159 113.379 84.9576 113.465 84.4258 113.545C84.366 113.578 84.2729 113.552 84.2796 113.472C84.3328 112.548 84.4125 111.604 84.5588 110.693L84.5654 110.68Z" fill="#263238"/>
<path d="M62.1511 126.134C61.9517 124.1 61.6193 122.08 61.4 120.052C60.9546 115.964 61.2604 111.883 62.1378 107.875C62.1511 107.801 62.0381 107.768 62.0248 107.848C61.3468 111.384 60.7618 114.921 60.9347 118.543C61.1075 122.126 61.7456 125.662 61.8054 129.258C61.8653 132.901 61.5794 136.537 61.3468 140.167C61.1141 143.822 60.8748 147.472 60.6422 151.128C59.6983 165.811 58.8275 180.495 57.9301 195.185C57.6775 199.287 57.4515 203.381 57.2122 207.483C56.9729 211.657 56.6805 215.831 56.5276 220.006C56.5143 220.365 57.0527 220.338 57.0793 219.992C57.7041 212.627 58.0631 205.229 58.535 197.851C59.0003 190.545 59.4258 183.24 59.8711 175.935C60.3165 168.63 60.7552 161.324 61.1873 154.019C61.4066 150.37 61.6127 146.714 61.8187 143.065C62.0314 139.429 62.2973 135.786 62.3505 132.143C62.3771 130.143 62.3439 128.142 62.1445 126.148L62.1511 126.134Z" fill="#263238"/>
<path d="M71.949 107.615C71.9291 107.569 71.8693 107.556 71.8427 107.602C71.6167 107.994 71.6566 108.646 71.5835 109.091C71.4904 109.636 71.3774 110.175 71.2046 110.7C70.8523 111.763 70.3737 112.714 69.5428 113.492C67.8012 115.12 65.468 115.725 63.2213 116.277C63.1349 116.297 63.1681 116.41 63.2412 116.416C64.564 116.509 65.9068 116.23 67.1631 115.805C68.2665 115.433 69.3301 114.914 70.1942 114.11C71.045 113.312 71.5768 112.288 71.8294 111.152C71.9557 110.573 71.9956 109.955 72.0155 109.364C72.0288 109.078 72.0288 108.785 72.0288 108.5C72.0288 108.214 72.0753 107.881 71.9557 107.622L71.949 107.615Z" fill="#263238"/>
<path d="M84.9775 70.2976C85.5492 74.8177 94.4032 91.6151 103.829 99.0666C107.285 101.799 125.612 103.414 130.192 103.062C135.563 102.649 136.367 89.8736 133.356 88.8765C129.6 87.6335 112.231 86.098 108.814 84.8616C104.666 83.3593 97.1153 73.7143 89.943 67.7451C86.2471 64.6741 84.5322 66.8145 84.9775 70.291V70.2976Z" fill="#AD6359"/>
<path d="M130.198 103.055C131.893 103.009 139.657 102.118 141.758 101.387C143.865 100.656 149.761 98.1099 149.369 96.4414C148.97 94.773 147.182 95.3779 147.182 95.3779C147.182 95.3779 149.502 93.9089 148.95 92.267C148.398 90.6251 145.646 91.6621 145.646 91.6621C145.646 91.6621 147.92 89.9804 147.255 88.3784C146.59 86.7764 143.998 88.2853 143.998 88.2853C143.998 88.2853 146.152 86.8429 145.041 85.7594C143.712 84.4499 140.049 87.5542 137.663 88.1923C137.125 88.3385 126.489 90.326 126.489 90.326L130.192 103.055H130.198Z" fill="#AD6359"/>
<path d="M144.224 88.1659C141.525 90.4392 139.95 90.971 136.5 91.4496C136.433 91.4562 136.433 91.5626 136.5 91.5559C139.916 91.3964 141.99 91.0175 144.337 88.2922C144.45 88.1592 144.35 88.0595 144.217 88.1659H144.224Z" fill="#263238"/>
<path d="M145.859 91.4827C142.848 93.6031 141.14 94.1881 137.57 94.9525C137.517 94.9658 137.53 95.0522 137.583 95.0456C141.153 94.5869 143.207 94.1681 145.939 91.6555C146.065 91.5425 145.992 91.3896 145.852 91.4893L145.859 91.4827Z" fill="#263238"/>
<path d="M146.996 95.4177C143.931 97.259 142.09 97.9835 138.527 98.2827C138.441 98.2893 138.447 98.4156 138.527 98.4156C142.19 98.4688 144.49 97.5781 147.036 95.5174C147.208 95.3778 147.182 95.3047 146.989 95.4177H146.996Z" fill="#263238"/>
<path d="M124.003 88.93C124.003 88.93 127.739 86.5503 129.607 85.8657C131.475 85.181 139.385 85.2009 139.478 86.9093C139.597 89.1161 135.031 90.0002 132.738 90.1464C132.738 90.1464 133.017 95.2515 129.879 96.5942C126.742 97.9369 124.003 88.9234 124.003 88.9234V88.93Z" fill="#AD6359"/>
<path d="M139.318 87.5338C137.975 89.621 134.951 89.6144 132.738 89.9202C132.571 89.9401 132.531 90.0863 132.571 90.2126C132.545 92.3597 131.887 95.3775 130.012 96.6538C129.959 96.6936 130.006 96.7734 130.065 96.7468C132.259 95.6567 133.15 92.7386 133.03 90.3855C135.303 90.1063 138.341 89.98 139.345 87.5471C139.345 87.5338 139.332 87.5205 139.325 87.5338H139.318Z" fill="#263238"/>
<path d="M114.365 102.809C114.365 102.809 104.979 100.244 103.836 99.3462C102.593 98.369 101.403 97.3121 100.273 96.1954C91.7377 87.8 86.5729 76.3669 85.177 72.3453C83.7079 68.0978 85.064 64.0363 89.019 66.775C89.3115 66.981 89.6173 67.2203 89.9363 67.4995C94.596 71.5543 107.033 83.8848 108.535 84.5229C110.037 85.1478 117.363 86.1116 117.363 86.1116L114.371 102.823L114.365 102.809Z" fill="#455A64"/>
<path d="M100.273 96.1954C91.7377 87.8 86.5729 76.3669 85.177 72.3453C83.7079 68.0978 85.064 64.0363 89.019 66.775L100.273 96.202V96.1954Z" fill="#263238"/>
<path d="M114.325 85.832C113.853 87.0883 113.56 88.4377 113.241 89.7472C112.916 91.0633 112.59 92.3795 112.304 93.7023C111.739 96.308 111.214 98.9535 110.948 101.612C110.941 101.679 111.048 101.699 111.068 101.632C111.786 99.0267 112.317 96.3612 112.869 93.7156C113.142 92.4127 113.388 91.1032 113.66 89.8004C113.933 88.4975 114.258 87.1747 114.405 85.852C114.405 85.8121 114.351 85.8054 114.338 85.8387L114.325 85.832Z" fill="#263238"/>
<path d="M94.0842 79.4982C94.3102 80.4886 94.483 81.5056 94.6093 82.5293C94.6093 82.4894 94.6159 82.4495 94.6226 82.4096C94.6758 81.8446 94.7156 81.2663 94.8153 80.708C94.8153 80.6814 94.8685 80.6747 94.8685 80.708C94.9151 81.273 94.8685 81.8712 94.8021 82.4362C94.7688 82.7088 94.7356 82.9747 94.6957 83.2472C94.7422 83.7058 94.7821 84.1645 94.8087 84.6165C94.8619 85.4806 95.0281 89.1698 95.0081 89.8013C95.0081 89.9343 94.8486 89.9476 94.822 89.8013C94.689 89.1499 94.3633 85.3543 94.2703 84.4969C94.0975 82.855 94.011 81.1533 94.0177 79.4982C94.0177 79.4583 94.0775 79.4649 94.0842 79.4982Z" fill="#263238"/>
<path d="M95.1411 107.111C93.8249 108.307 92.1897 110.056 82.8571 110.707C82.2721 110.747 81.6805 110.76 81.0756 110.74C72.0886 110.488 59.4789 103.409 58.7278 102.87C58.7278 102.87 68.4128 76.6669 81.2219 66.6097C83.0498 65.1739 86.9717 65.8852 89.4245 67.3609C90.3019 67.8926 93.2001 72.7384 93.7784 77.1522C94.35 81.5592 96.4638 105.914 95.1344 107.111H95.1411Z" fill="#455A64"/>
<path d="M87.8624 73.9016C85.6024 74.0811 82.3719 70.1725 81.3083 67.2477C81.2352 67.0483 81.8201 65.1406 82.4184 62.7875C82.7773 61.3583 83.1429 59.7564 83.3689 58.2741C83.4155 57.9683 84.366 58.6862 84.366 58.6862L86.2139 59.444L92.3293 61.9566C92.3293 61.9566 90.9401 64.9279 90.5545 67.5136C90.5279 67.733 90.5146 67.9324 90.5279 68.1318C90.5279 68.1584 90.5279 68.1983 90.5279 68.2315C90.5412 69.4147 90.056 73.7155 87.8691 73.8883L87.8624 73.9016Z" fill="#AD6359"/>
<path d="M90.5213 68.1387C90.5213 68.1387 90.5213 68.2052 90.5213 68.2384C90.2222 68.2384 89.9031 68.2052 89.5575 68.1454C83.3158 67.042 83.7545 58.959 83.7545 58.959L86.2139 59.4442L92.3293 61.9569C92.3293 61.9569 90.9401 64.9281 90.5545 67.5139C90.5279 67.7333 90.5146 67.9327 90.5279 68.1321L90.5213 68.1387Z" fill="#263238"/>
<path d="M82.7308 48.5422C81.5409 51.8259 82.8106 61.544 85.0706 63.8107C88.3477 67.1011 93.9579 67.686 96.8162 63.6844C99.5814 59.8091 97.7069 47.1728 95.161 45.0856C91.4054 42.0146 84.4856 43.6897 82.7308 48.5355V48.5422Z" fill="#AD6359"/>
<path d="M91.5848 55.2695C91.5848 55.2695 91.5383 55.3094 91.5449 55.336C91.6446 55.9874 91.6579 56.7519 91.0929 57.0443C91.073 57.051 91.0796 57.0842 91.1062 57.0776C91.8175 56.8848 91.7975 55.8678 91.5915 55.2695H91.5848Z" fill="#263238"/>
<path d="M90.9134 54.658C89.8499 54.7112 90.036 56.8316 91.0198 56.7851C91.9903 56.7385 91.8042 54.6114 90.9134 54.658Z" fill="#263238"/>
<path d="M95.613 54.8379C95.613 54.8379 95.6662 54.8645 95.6662 54.8911C95.6994 55.5491 95.8523 56.3003 96.4705 56.4665C96.4904 56.4665 96.4904 56.5063 96.4705 56.5063C95.7327 56.4665 95.5465 55.4694 95.613 54.8379Z" fill="#263238"/>
<path d="M96.1448 54.0999C97.195 53.9271 97.4609 56.0409 96.4904 56.2004C95.5333 56.3599 95.2674 54.2395 96.1448 54.0999Z" fill="#263238"/>
<path d="M90.0892 53.1156C90.375 53.0159 90.6143 52.883 90.8869 52.7567C91.1926 52.6171 91.4452 52.5307 91.6314 52.2315C91.7311 52.072 91.6579 51.8061 91.5117 51.6931C91.1661 51.4405 90.7539 51.5203 90.3817 51.6732C89.9762 51.8393 89.7103 52.0786 89.4976 52.4642C89.2982 52.8364 89.717 53.2419 90.0892 53.1156Z" fill="#263238"/>
<path d="M96.8095 53.3745C96.5104 53.3545 96.2379 53.2814 95.9454 53.2282C95.613 53.1684 95.3471 53.1551 95.0945 52.9092C94.9616 52.7762 94.9616 52.5037 95.0746 52.3574C95.3405 52.0251 95.7659 51.9985 96.1647 52.0517C96.5968 52.1115 96.9225 52.271 97.215 52.5901C97.5075 52.9025 97.2017 53.4011 96.8095 53.3678V53.3745Z" fill="#263238"/>
<path d="M91.5383 61.2056C91.7111 61.3452 91.884 61.5446 92.1233 61.5446C92.3559 61.5446 92.6151 61.4183 92.8146 61.3186C92.8345 61.312 92.8544 61.3319 92.8478 61.3519C92.7016 61.6178 92.3559 61.8105 92.0435 61.7839C91.7444 61.7574 91.5715 61.5114 91.4785 61.2455C91.4652 61.2056 91.5117 61.1923 91.5383 61.2123V61.2056Z" fill="#263238"/>
<path d="M94.6891 58.3997C94.6891 58.3997 94.8154 59.3768 94.8154 59.8421C94.8154 59.8886 93.4992 59.7623 92.1432 60.2143C91.9371 60.2808 91.9438 60.108 92.1698 59.975C92.6284 59.7025 93.2134 59.4366 94.4165 59.4433C94.4498 59.317 94.1905 57.941 94.2637 57.9344C94.5162 57.9144 95.0148 58.0872 95.3139 58.1803C95.1078 56.133 94.5694 54.1322 94.3966 52.0915C94.3966 52.0184 94.4963 51.9984 94.5162 52.0649C95.2275 54.1189 95.5133 56.472 95.7859 58.5858C95.8191 58.8517 94.8752 58.4927 94.6891 58.413V58.3997Z" fill="#263238"/>
<path d="M83.4354 56.6448C85.1105 56.5251 84.8978 52.4304 84.8978 52.4304C84.8978 52.4304 87.4503 51.9386 88.6534 48.4222C88.6534 48.4222 91.9637 50.4429 94.7156 49.9112C99.0297 49.0736 98.8435 43.4634 97.2083 42.3334C94.8951 40.7381 90.8403 43.151 90.8403 43.151C90.8403 43.151 84.6385 41.5025 82.8504 45.7035C82.8504 45.7035 80.0985 45.8564 79.9456 48.9008C79.7927 51.9452 82.1791 56.7245 83.4287 56.6381L83.4354 56.6448Z" fill="#263238"/>
<path d="M84.3062 52.9227C85.5292 52.6635 86.6925 52.0852 87.5101 51.1213C88.3543 50.1242 88.8329 48.6087 88.4474 47.3258C88.4274 47.2593 88.5404 47.2261 88.5604 47.2992C88.8861 48.7217 88.8196 50.1907 87.9222 51.4071C87.1046 52.5239 85.7087 53.2218 84.3128 53.0423C84.2463 53.0357 84.2264 52.936 84.2995 52.916L84.3062 52.9227Z" fill="#263238"/>
<path d="M79.713 47.1264C80.5505 46.0363 81.8467 45.8502 83.1296 45.8834C83.2027 45.8834 83.1961 46.0031 83.1296 45.9964C81.8667 45.8701 80.6037 46.7276 79.9523 47.7712C79.3208 48.7949 79.4803 50.0711 79.7529 51.1879C80.278 53.3282 81.5675 55.2559 83.4022 56.4923C83.4354 56.5122 83.4022 56.5588 83.3689 56.5388C81.2884 55.2493 79.7595 53.1421 79.2743 50.7358C79.0416 49.5593 78.9353 48.1368 79.7063 47.1331L79.713 47.1264Z" fill="#263238"/>
<path d="M90.6808 43.3574C91.2525 42.4667 92.0236 41.8153 93.0339 41.5095C94.1972 41.1572 95.5333 41.2968 96.6234 41.8286C97.5474 42.2806 98.0658 43.2112 98.1456 44.2349C98.2387 45.4048 97.7002 46.5148 97.0555 47.4388C97.0355 47.4654 96.9956 47.4388 97.0156 47.4122C97.5407 46.5348 97.9395 45.551 97.8664 44.5074C97.7933 43.4704 97.2349 42.6063 96.291 42.2075C94.5096 41.443 91.9172 41.6026 90.7805 43.4239C90.7406 43.4837 90.6476 43.4239 90.6875 43.3641L90.6808 43.3574Z" fill="#263238"/>
<path d="M84.3859 56.4994C84.3859 56.4994 82.3054 53.3154 80.8629 54.0466C79.4271 54.7778 80.9227 59.351 82.5646 60.0158C84.2064 60.6871 84.8579 59.1782 84.8579 59.1782L84.3859 56.4927V56.4994Z" fill="#AD6359"/>
<path d="M81.3282 55.3428C81.3282 55.3428 81.295 55.376 81.3149 55.3893C82.4649 55.8945 83.0432 56.9979 83.4354 58.1279C83.103 57.6892 82.6377 57.4366 82.0461 57.8288C82.0129 57.8488 82.0461 57.8953 82.0727 57.8953C82.5513 57.8089 82.897 57.8953 83.2027 58.2941C83.4221 58.5733 83.5683 58.919 83.7212 59.238C83.7744 59.3444 83.9605 59.2912 83.9273 59.1716C83.9273 59.1649 83.9273 59.1516 83.9206 59.145C83.9937 57.6626 82.9036 55.5488 81.3149 55.3494L81.3282 55.3428Z" fill="#263238"/>
<path d="M21.7163 261.358H0V257.369H21.7163C38.9259 257.369 43.8249 242.646 44.9083 230.302C45.7592 220.63 46.2777 208.845 46.8294 196.375C48.8966 149.725 51.037 101.486 69.8087 101.486H87.0049V105.475H69.8087C54.8525 105.475 52.5194 158.114 50.811 196.548C50.2593 209.064 49.7342 220.883 48.8767 230.641C47.1418 250.443 37.4901 261.351 21.7097 261.351L21.7163 261.358Z" fill="#28BFB2"/>
<path opacity="0.2" d="M87.0116 101.486V105.475H73.2918L72.4409 101.486H87.0116Z" fill="black"/>
<path d="M146.69 129.245H154.015V78.0751H146.69V129.245Z" fill="#28BFB2"/>
<path d="M146.69 80.501H118.852V126.287H146.69V80.501Z" fill="#28BFB2"/>
<path opacity="0.2" d="M146.69 80.501V126.293H139.777L136.673 80.501H146.69Z" fill="black"/>
<path d="M76.6818 107.562H97.3346V99.4064H76.6818V107.562Z" fill="#28BFB2"/>
<path d="M97.3346 99.4062H76.6819V107.562H97.3346V99.4062Z" fill="#28BFB2"/>
<path opacity="0.2" d="M90.0826 107.556L90.7606 99.4062H97.3346V107.556H90.0826Z" fill="black"/>
<path d="M118.852 123.581H101.423C99.1693 123.581 97.3347 121.746 97.3347 119.493V87.8259C97.3347 85.5725 99.1693 83.7379 101.423 83.7379H118.852V123.581Z" fill="#28BFB2"/>
<path opacity="0.2" d="M109.692 123.575L112.796 83.7383H118.852V123.575H109.692Z" fill="black"/>
<g opacity="0.2">
<path d="M111.294 115.525H112.67V91.795H111.294V115.525Z" fill="black"/>
<path d="M107.405 115.525H108.781V91.795H107.405V115.525Z" fill="black"/>
<path d="M103.51 115.525H104.886V91.795H103.51V115.525Z" fill="black"/>
</g>
<path d="M75.4122 75.7887C74.7143 85.3872 73.9964 104.943 78.2306 110.673C83.7943 118.198 99.4883 122.764 104.128 124.134C106.149 124.732 110.902 111.524 109.718 109.603C108.535 107.688 92.3226 103.6 91.0464 102.504C89.7701 101.407 85.7552 85.806 83.8076 77.8692C81.3548 67.8586 75.6848 71.9998 75.4122 75.7887Z" fill="#AD6359"/>
<path d="M121.723 114.681C124.289 115.293 128.171 113.983 128.297 115.938C128.41 117.679 125.632 118.331 125.632 118.331C125.632 118.331 128.995 118.61 128.583 120.517C128.171 122.425 124.98 122.518 124.98 122.518C124.98 122.518 128.065 122.937 127.513 124.818C126.961 126.693 123.996 126.952 123.996 126.952C123.996 126.952 124.781 127.537 123.797 128.687C122.388 130.335 117.715 130.143 115.295 129.458C112.876 128.78 104.527 124.499 103.264 123.821L107.498 108.267C107.498 108.267 112.357 107.496 114.87 107.403C117.383 107.309 125.738 109.304 125.386 111.411C125.033 113.518 119.151 112.009 117.635 111.956C116.113 111.903 115.847 112.242 116.512 112.8C116.95 113.166 120.6 114.422 121.736 114.688L121.723 114.681Z" fill="#AD6359"/>
<path d="M125.479 118.291C121.544 118.922 119.716 118.517 116.106 116.974C116.033 116.941 115.973 117.041 116.046 117.081C119.436 118.915 121.663 119.753 125.519 118.483C125.705 118.424 125.665 118.264 125.479 118.297V118.291Z" fill="#263238"/>
<path d="M125.133 122.451C120.992 122.751 119.004 122.325 115.109 120.989C115.056 120.969 115.016 121.062 115.069 121.082C118.778 122.717 121.019 123.502 125.12 122.658C125.306 122.618 125.326 122.432 125.14 122.445L125.133 122.451Z" fill="#263238"/>
<path d="M123.95 126.912C119.915 126.912 117.715 126.539 114.105 124.758C114.019 124.718 113.953 124.838 114.032 124.884C117.542 127.065 120.281 127.543 123.937 127.031C124.189 126.998 124.203 126.912 123.95 126.912Z" fill="#263238"/>
<path d="M91.8906 121.016C91.8906 121.016 79.2144 114.655 77.2934 109.769C74.9004 103.68 73.9233 85.9257 74.8539 76.8191C75.7845 67.7125 82.1259 68.8159 84.1932 76.8989C86.2006 84.7492 90.6875 100.45 91.1528 101.181C91.751 102.132 98.9765 103.92 98.9765 103.92" fill="#455A64"/>
<path d="M90.621 99.1474C90.4016 98.3963 90.0161 96.7012 89.7967 95.9701C89.3514 94.501 88.906 93.0386 88.4474 91.5763C87.9887 90.1139 87.5367 88.6449 87.0448 87.1891C86.965 86.9432 86.8853 86.6906 86.8055 86.4446C86.8454 86.2851 86.6593 84.3574 86.6792 83.8855C86.6792 83.8124 86.5596 83.8057 86.5662 83.8855C86.5994 84.3574 86.5529 84.8294 86.5197 85.3013C86.5197 85.3877 86.5197 85.4742 86.5197 85.5672C86.2139 84.61 85.9081 83.6595 85.5891 82.7289C85.5625 82.6557 85.4561 82.6823 85.4761 82.7555C86.0743 84.7496 86.3668 86.0059 86.7989 87.6212C87.2176 89.1899 87.6896 90.7387 88.1482 92.2942C88.6069 93.8496 89.0988 95.3984 89.584 96.9472C89.7901 97.5986 90.2554 99.0809 90.5412 99.6592C90.8271 100.224 90.8404 99.9451 90.6144 99.1607L90.621 99.1474Z" fill="#263238"/>
<path d="M76.3229 104.512C76.0637 102.87 75.8044 101.221 75.605 99.5729C75.1995 96.2692 74.9602 92.9722 74.8007 89.6486C74.7076 87.7542 74.568 85.8597 74.4617 83.9653C74.4617 83.8722 74.3155 83.8722 74.3155 83.9653C74.3088 85.6537 74.2556 87.3354 74.3022 89.0238C74.3022 89.2698 74.3221 89.5157 74.3288 89.755C74.3022 89.642 74.2756 89.529 74.249 89.416C74.003 88.4522 73.6574 87.5083 73.4447 86.5311C73.4314 86.4646 73.3317 86.4979 73.345 86.5643C73.5909 87.5348 73.7106 88.5386 73.9432 89.5091C74.0562 89.9943 74.1759 90.4795 74.3155 90.9581C74.3354 91.0313 74.362 91.0977 74.3819 91.1708C74.4218 92.1413 74.4683 93.1118 74.5282 94.0823C74.7409 97.4192 75.0666 100.723 75.6781 104.013C76.2963 107.343 76.8547 108.52 77.413 110.321C77.433 110.388 77.5327 110.355 77.5128 110.288C77.0807 108.68 76.5888 106.154 76.3229 104.505V104.512Z" fill="#263238"/>
<path d="M96.5636 103.913C95.839 105.077 95.2807 106.366 94.6957 107.609C94.1108 108.859 93.5192 110.108 92.9741 111.378C91.8906 113.871 90.8404 116.41 90.0427 119.009C90.0228 119.075 90.1291 119.115 90.1557 119.056C91.3921 116.596 92.4556 114.037 93.5325 111.498C94.0642 110.248 94.5694 108.992 95.1012 107.735C95.633 106.486 96.2246 105.229 96.63 103.94C96.6433 103.9 96.5835 103.88 96.5636 103.913Z" fill="#263238"/>
<path d="M166.286 69.5144C166.1 69.5144 165.953 69.3681 165.953 69.182V59.8294C165.953 59.6433 166.1 59.4971 166.286 59.4971C166.472 59.4971 166.618 59.6433 166.618 59.8294V69.182C166.618 69.3681 166.472 69.5144 166.286 69.5144Z" fill="#263238"/>
<path d="M149.362 73.9946C149.249 73.9946 149.136 73.9348 149.076 73.8284L144.397 65.7322C144.304 65.5726 144.357 65.3732 144.516 65.2802C144.676 65.1871 144.875 65.2403 144.968 65.3998L149.648 73.4961C149.741 73.6556 149.688 73.855 149.528 73.9481C149.475 73.9813 149.422 73.9946 149.362 73.9946Z" fill="#263238"/>
<path d="M144.496 140.679C144.443 140.679 144.383 140.666 144.33 140.633C144.171 140.54 144.117 140.34 144.211 140.181L148.89 132.084C148.983 131.925 149.183 131.872 149.342 131.965C149.502 132.058 149.555 132.257 149.462 132.417L144.782 140.513C144.722 140.619 144.609 140.679 144.496 140.679Z" fill="#263238"/>
<path d="M166.073 146.522C165.887 146.522 165.741 146.376 165.741 146.19V136.837C165.741 136.651 165.887 136.505 166.073 136.505C166.259 136.505 166.405 136.651 166.405 136.837V146.19C166.405 146.376 166.259 146.522 166.073 146.522Z" fill="#263238"/>
<path d="M187.676 140.786C187.563 140.786 187.45 140.726 187.391 140.619L182.718 132.523C182.625 132.364 182.678 132.158 182.837 132.071C182.997 131.978 183.196 132.031 183.289 132.191L187.962 140.287C188.055 140.447 188.002 140.653 187.843 140.739C187.789 140.772 187.736 140.786 187.676 140.786Z" fill="#263238"/>
<path d="M183.183 74.1011C183.123 74.1011 183.07 74.0878 183.017 74.0545C182.857 73.9615 182.804 73.7621 182.897 73.6025L187.577 65.5063C187.67 65.3467 187.869 65.2936 188.029 65.3866C188.188 65.4797 188.241 65.6791 188.148 65.8386L183.469 73.9349C183.409 74.0412 183.296 74.1011 183.183 74.1011Z" fill="#263238"/>
</g>
<defs>
<clipPath id="clip0_2653_84057">
<rect width="332" height="260.716" fill="white" transform="translate(0 0.642578)"/>
</clipPath>
</defs>
</svg>
